<mxfile host="app.diagrams.net" modified="2022-04-19T11:46:32.122Z" agent="5.0 (Windows NT 10.0; Win64; x64) AppleWebKit/537.36 (KHTML, like Gecko) Chrome/100.0.4896.60 Safari/537.36" etag="imj9UttGWi9avJchq5VR" version="17.4.5" type="github">
  <diagram id="0LAJnjRN8uaiDKhzAC2x" name="Page-1">
    <mxGraphModel dx="1038" dy="578" grid="1" gridSize="10" guides="1" tooltips="1" connect="1" arrows="1" fold="1" page="1" pageScale="1" pageWidth="300000" pageHeight="30000" math="0" shadow="0">
      <root>
        <mxCell id="0" />
        <mxCell id="1" parent="0" />
        <mxCell id="yOBWlnK-e6VTriVFLW_p-4" value="安排/编辑视频面试&lt;br&gt;自定义" style="edgeStyle=orthogonalEdgeStyle;rounded=0;orthogonalLoop=1;jettySize=auto;html=1;" parent="1" source="yOBWlnK-e6VTriVFLW_p-1" target="yOBWlnK-e6VTriVFLW_p-2" edge="1">
          <mxGeometry relative="1" as="geometry" />
        </mxCell>
        <mxCell id="yOBWlnK-e6VTriVFLW_p-1" value="面试MR" style="html=1;" parent="1" vertex="1">
          <mxGeometry x="340" y="130" width="110" height="50" as="geometry" />
        </mxCell>
        <mxCell id="yOBWlnK-e6VTriVFLW_p-9" value="" style="edgeStyle=orthogonalEdgeStyle;rounded=0;orthogonalLoop=1;jettySize=auto;html=1;" parent="1" source="yOBWlnK-e6VTriVFLW_p-2" target="yOBWlnK-e6VTriVFLW_p-6" edge="1">
          <mxGeometry relative="1" as="geometry" />
        </mxCell>
        <mxCell id="yOBWlnK-e6VTriVFLW_p-16" value="面试信息" style="edgeStyle=orthogonalEdgeStyle;rounded=0;orthogonalLoop=1;jettySize=auto;html=1;entryX=0.5;entryY=0;entryDx=0;entryDy=0;" parent="1" source="yOBWlnK-e6VTriVFLW_p-2" target="yOBWlnK-e6VTriVFLW_p-15" edge="1">
          <mxGeometry relative="1" as="geometry" />
        </mxCell>
        <mxCell id="yOBWlnK-e6VTriVFLW_p-2" value="面试ESB" style="html=1;" parent="1" vertex="1">
          <mxGeometry x="340" y="270" width="110" height="50" as="geometry" />
        </mxCell>
        <mxCell id="yOBWlnK-e6VTriVFLW_p-11" value="" style="edgeStyle=orthogonalEdgeStyle;rounded=0;orthogonalLoop=1;jettySize=auto;html=1;" parent="1" source="yOBWlnK-e6VTriVFLW_p-6" target="yOBWlnK-e6VTriVFLW_p-7" edge="1">
          <mxGeometry relative="1" as="geometry" />
        </mxCell>
        <mxCell id="yOBWlnK-e6VTriVFLW_p-6" value="面试安排消费端" style="html=1;" parent="1" vertex="1">
          <mxGeometry x="510" y="270" width="110" height="50" as="geometry" />
        </mxCell>
        <mxCell id="yOBWlnK-e6VTriVFLW_p-7" value="面试通知消费端" style="html=1;" parent="1" vertex="1">
          <mxGeometry x="680" y="270" width="110" height="50" as="geometry" />
        </mxCell>
        <mxCell id="yOBWlnK-e6VTriVFLW_p-17" value="自定义视频链接等" style="edgeStyle=orthogonalEdgeStyle;rounded=0;orthogonalLoop=1;jettySize=auto;html=1;entryX=0;entryY=0.5;entryDx=0;entryDy=0;" parent="1" source="yOBWlnK-e6VTriVFLW_p-15" target="yOBWlnK-e6VTriVFLW_p-2" edge="1">
          <mxGeometry relative="1" as="geometry">
            <Array as="points">
              <mxPoint x="270" y="420" />
              <mxPoint x="270" y="295" />
            </Array>
          </mxGeometry>
        </mxCell>
        <mxCell id="yOBWlnK-e6VTriVFLW_p-15" value="客开" style="html=1;fillColor=#dae8fc;strokeColor=#6c8ebf;" parent="1" vertex="1">
          <mxGeometry x="340" y="400" width="110" height="50" as="geometry" />
        </mxCell>
        <mxCell id="yOBWlnK-e6VTriVFLW_p-22" value="1：n" style="edgeStyle=orthogonalEdgeStyle;rounded=0;orthogonalLoop=1;jettySize=auto;html=1;entryX=0;entryY=0.5;entryDx=0;entryDy=0;" parent="1" source="yOBWlnK-e6VTriVFLW_p-18" target="yOBWlnK-e6VTriVFLW_p-19" edge="1">
          <mxGeometry relative="1" as="geometry" />
        </mxCell>
        <mxCell id="yOBWlnK-e6VTriVFLW_p-18" value="&lt;div style=&quot;box-sizing: border-box ; width: 100% ; background: #e4e4e4 ; padding: 2px&quot;&gt;面试安排&lt;/div&gt;&lt;table style=&quot;width: 100% ; font-size: 1em&quot; cellpadding=&quot;2&quot; cellspacing=&quot;0&quot;&gt;&lt;tbody&gt;&lt;tr&gt;&lt;td&gt;PK&lt;/td&gt;&lt;td&gt;ArrangementId&lt;/td&gt;&lt;/tr&gt;&lt;tr&gt;&lt;td&gt;&lt;br&gt;&lt;/td&gt;&lt;td&gt;……&lt;/td&gt;&lt;/tr&gt;&lt;/tbody&gt;&lt;/table&gt;" style="verticalAlign=top;align=left;overflow=fill;html=1;" parent="1" vertex="1">
          <mxGeometry x="180" y="670" width="180" height="90" as="geometry" />
        </mxCell>
        <mxCell id="yOBWlnK-e6VTriVFLW_p-23" value="1：n" style="edgeStyle=orthogonalEdgeStyle;rounded=0;orthogonalLoop=1;jettySize=auto;html=1;" parent="1" source="yOBWlnK-e6VTriVFLW_p-19" target="yOBWlnK-e6VTriVFLW_p-20" edge="1">
          <mxGeometry relative="1" as="geometry" />
        </mxCell>
        <mxCell id="yOBWlnK-e6VTriVFLW_p-24" value="1:1" style="edgeStyle=orthogonalEdgeStyle;rounded=0;orthogonalLoop=1;jettySize=auto;html=1;entryX=0.5;entryY=0;entryDx=0;entryDy=0;" parent="1" source="yOBWlnK-e6VTriVFLW_p-19" target="yOBWlnK-e6VTriVFLW_p-21" edge="1">
          <mxGeometry relative="1" as="geometry" />
        </mxCell>
        <mxCell id="yOBWlnK-e6VTriVFLW_p-19" value="&lt;div style=&quot;box-sizing: border-box ; width: 100% ; background: #e4e4e4 ; padding: 2px&quot;&gt;面试日程&lt;/div&gt;&lt;table style=&quot;width: 100% ; font-size: 1em&quot; cellpadding=&quot;2&quot; cellspacing=&quot;0&quot;&gt;&lt;tbody&gt;&lt;tr&gt;&lt;td&gt;PK&lt;/td&gt;&lt;td&gt;ScheduleId&lt;/td&gt;&lt;/tr&gt;&lt;tr&gt;&lt;td&gt;&lt;br&gt;&lt;/td&gt;&lt;td&gt;ArrangementId&lt;br&gt;VideoRoomId&lt;br&gt;……&lt;/td&gt;&lt;/tr&gt;&lt;/tbody&gt;&lt;/table&gt;" style="verticalAlign=top;align=left;overflow=fill;html=1;" parent="1" vertex="1">
          <mxGeometry x="460" y="670" width="180" height="90" as="geometry" />
        </mxCell>
        <mxCell id="yOBWlnK-e6VTriVFLW_p-20" value="&lt;div style=&quot;box-sizing: border-box ; width: 100% ; background: #e4e4e4 ; padding: 2px&quot;&gt;面试&lt;/div&gt;&lt;table style=&quot;width: 100% ; font-size: 1em&quot; cellpadding=&quot;2&quot; cellspacing=&quot;0&quot;&gt;&lt;tbody&gt;&lt;tr&gt;&lt;td&gt;PK&lt;/td&gt;&lt;td&gt;InterviewId&lt;/td&gt;&lt;/tr&gt;&lt;tr&gt;&lt;td&gt;&lt;br&gt;&lt;/td&gt;&lt;td&gt;ArrangementId&lt;br&gt;ScheduleId&lt;br&gt;……&lt;/td&gt;&lt;/tr&gt;&lt;/tbody&gt;&lt;/table&gt;" style="verticalAlign=top;align=left;overflow=fill;html=1;" parent="1" vertex="1">
          <mxGeometry x="740" y="670" width="180" height="90" as="geometry" />
        </mxCell>
        <mxCell id="yOBWlnK-e6VTriVFLW_p-21" value="&lt;div style=&quot;box-sizing: border-box ; width: 100% ; background: #e4e4e4 ; padding: 2px&quot;&gt;视频面试会议&lt;/div&gt;&lt;table style=&quot;width: 100% ; font-size: 1em&quot; cellpadding=&quot;2&quot; cellspacing=&quot;0&quot;&gt;&lt;tbody&gt;&lt;tr&gt;&lt;td&gt;PK&lt;/td&gt;&lt;td&gt;VideoMeetingId&lt;/td&gt;&lt;/tr&gt;&lt;tr&gt;&lt;td&gt;&lt;br&gt;&lt;/td&gt;&lt;td&gt;VideoRoomUrl&lt;br&gt;VideoRoomCode&lt;br&gt;VideoRoomPassword&lt;br&gt;……&lt;/td&gt;&lt;/tr&gt;&lt;/tbody&gt;&lt;/table&gt;" style="verticalAlign=top;align=left;overflow=fill;html=1;" parent="1" vertex="1">
          <mxGeometry x="460" y="860" width="180" height="90" as="geometry" />
        </mxCell>
        <mxCell id="yOBWlnK-e6VTriVFLW_p-25" value="安排/编辑视频面试&lt;br&gt;自定义" style="edgeStyle=orthogonalEdgeStyle;rounded=0;orthogonalLoop=1;jettySize=auto;html=1;" parent="1" source="yOBWlnK-e6VTriVFLW_p-26" target="yOBWlnK-e6VTriVFLW_p-29" edge="1">
          <mxGeometry relative="1" as="geometry" />
        </mxCell>
        <mxCell id="yOBWlnK-e6VTriVFLW_p-26" value="面试MR" style="html=1;" parent="1" vertex="1">
          <mxGeometry x="300" y="1010" width="110" height="50" as="geometry" />
        </mxCell>
        <mxCell id="yOBWlnK-e6VTriVFLW_p-27" value="" style="edgeStyle=orthogonalEdgeStyle;rounded=0;orthogonalLoop=1;jettySize=auto;html=1;" parent="1" source="yOBWlnK-e6VTriVFLW_p-29" target="yOBWlnK-e6VTriVFLW_p-31" edge="1">
          <mxGeometry relative="1" as="geometry" />
        </mxCell>
        <mxCell id="yOBWlnK-e6VTriVFLW_p-28" value="" style="edgeStyle=orthogonalEdgeStyle;rounded=0;orthogonalLoop=1;jettySize=auto;html=1;entryX=0.5;entryY=0;entryDx=0;entryDy=0;" parent="1" source="yOBWlnK-e6VTriVFLW_p-29" target="yOBWlnK-e6VTriVFLW_p-34" edge="1">
          <mxGeometry relative="1" as="geometry" />
        </mxCell>
        <mxCell id="yOBWlnK-e6VTriVFLW_p-29" value="面试ESB" style="html=1;" parent="1" vertex="1">
          <mxGeometry x="300" y="1150" width="110" height="50" as="geometry" />
        </mxCell>
        <mxCell id="yOBWlnK-e6VTriVFLW_p-30" value="" style="edgeStyle=orthogonalEdgeStyle;rounded=0;orthogonalLoop=1;jettySize=auto;html=1;" parent="1" source="yOBWlnK-e6VTriVFLW_p-31" target="yOBWlnK-e6VTriVFLW_p-32" edge="1">
          <mxGeometry relative="1" as="geometry" />
        </mxCell>
        <mxCell id="yOBWlnK-e6VTriVFLW_p-31" value="面试安排消费端" style="html=1;" parent="1" vertex="1">
          <mxGeometry x="470" y="1150" width="110" height="50" as="geometry" />
        </mxCell>
        <mxCell id="yOBWlnK-e6VTriVFLW_p-32" value="面试通知消费端" style="html=1;" parent="1" vertex="1">
          <mxGeometry x="640" y="1150" width="110" height="50" as="geometry" />
        </mxCell>
        <mxCell id="yOBWlnK-e6VTriVFLW_p-34" value="视频面试ESB" style="html=1;" parent="1" vertex="1">
          <mxGeometry x="300" y="1280" width="110" height="50" as="geometry" />
        </mxCell>
        <mxCell id="yOBWlnK-e6VTriVFLW_p-35" style="edgeStyle=orthogonalEdgeStyle;rounded=0;orthogonalLoop=1;jettySize=auto;html=1;entryX=0;entryY=0.5;entryDx=0;entryDy=0;" parent="1" source="yOBWlnK-e6VTriVFLW_p-36" target="yOBWlnK-e6VTriVFLW_p-39" edge="1">
          <mxGeometry relative="1" as="geometry" />
        </mxCell>
        <mxCell id="qomqAFSf7AB_BySmps6i-62" value="1：n" style="edgeLabel;html=1;align=center;verticalAlign=middle;resizable=0;points=[];" vertex="1" connectable="0" parent="yOBWlnK-e6VTriVFLW_p-35">
          <mxGeometry x="-0.212" y="-1" relative="1" as="geometry">
            <mxPoint as="offset" />
          </mxGeometry>
        </mxCell>
        <mxCell id="L0MEZrE-DLsut9pZWQ_O-76" style="edgeStyle=orthogonalEdgeStyle;rounded=0;orthogonalLoop=1;jettySize=auto;html=1;entryX=0;entryY=0.5;entryDx=0;entryDy=0;labelBackgroundColor=#FFFFFF;" parent="1" source="yOBWlnK-e6VTriVFLW_p-36" target="L0MEZrE-DLsut9pZWQ_O-75" edge="1">
          <mxGeometry relative="1" as="geometry">
            <Array as="points">
              <mxPoint x="200" y="1420" />
            </Array>
          </mxGeometry>
        </mxCell>
        <mxCell id="qomqAFSf7AB_BySmps6i-63" value="1：n" style="edgeLabel;html=1;align=center;verticalAlign=middle;resizable=0;points=[];" vertex="1" connectable="0" parent="L0MEZrE-DLsut9pZWQ_O-76">
          <mxGeometry x="-0.5024" y="2" relative="1" as="geometry">
            <mxPoint as="offset" />
          </mxGeometry>
        </mxCell>
        <mxCell id="yOBWlnK-e6VTriVFLW_p-36" value="&lt;div style=&quot;box-sizing: border-box ; width: 100% ; background: #e4e4e4 ; padding: 2px&quot;&gt;面试安排&lt;/div&gt;&lt;table style=&quot;width: 100% ; font-size: 1em&quot; cellpadding=&quot;2&quot; cellspacing=&quot;0&quot;&gt;&lt;tbody&gt;&lt;tr&gt;&lt;td&gt;PK&lt;/td&gt;&lt;td&gt;ArrangementId&lt;/td&gt;&lt;/tr&gt;&lt;tr&gt;&lt;td&gt;&lt;br&gt;&lt;/td&gt;&lt;td&gt;……&lt;/td&gt;&lt;/tr&gt;&lt;/tbody&gt;&lt;/table&gt;" style="verticalAlign=top;align=left;overflow=fill;html=1;" parent="1" vertex="1">
          <mxGeometry x="130" y="1550" width="180" height="90" as="geometry" />
        </mxCell>
        <mxCell id="yOBWlnK-e6VTriVFLW_p-37" value="1：n" style="edgeStyle=orthogonalEdgeStyle;rounded=0;orthogonalLoop=1;jettySize=auto;html=1;" parent="1" source="yOBWlnK-e6VTriVFLW_p-39" target="yOBWlnK-e6VTriVFLW_p-40" edge="1">
          <mxGeometry relative="1" as="geometry">
            <Array as="points">
              <mxPoint x="630" y="1595" />
              <mxPoint x="630" y="1595" />
            </Array>
          </mxGeometry>
        </mxCell>
        <mxCell id="yOBWlnK-e6VTriVFLW_p-38" value="1：1" style="edgeStyle=orthogonalEdgeStyle;rounded=0;orthogonalLoop=1;jettySize=auto;html=1;entryX=0.5;entryY=0;entryDx=0;entryDy=0;" parent="1" source="yOBWlnK-e6VTriVFLW_p-39" target="yOBWlnK-e6VTriVFLW_p-41" edge="1">
          <mxGeometry relative="1" as="geometry" />
        </mxCell>
        <mxCell id="L0MEZrE-DLsut9pZWQ_O-77" value="1：n&lt;br&gt;" style="edgeStyle=orthogonalEdgeStyle;rounded=0;orthogonalLoop=1;jettySize=auto;html=1;entryX=0.5;entryY=1;entryDx=0;entryDy=0;labelBackgroundColor=#FFFFFF;" parent="1" source="yOBWlnK-e6VTriVFLW_p-39" target="L0MEZrE-DLsut9pZWQ_O-75" edge="1">
          <mxGeometry relative="1" as="geometry" />
        </mxCell>
        <mxCell id="yOBWlnK-e6VTriVFLW_p-39" value="&lt;div style=&quot;box-sizing: border-box ; width: 100% ; background: #e4e4e4 ; padding: 2px&quot;&gt;面试日程&lt;/div&gt;&lt;table style=&quot;width: 100% ; font-size: 1em&quot; cellpadding=&quot;2&quot; cellspacing=&quot;0&quot;&gt;&lt;tbody&gt;&lt;tr&gt;&lt;td&gt;PK&lt;/td&gt;&lt;td&gt;ScheduleId&lt;/td&gt;&lt;/tr&gt;&lt;tr&gt;&lt;td&gt;&lt;br&gt;&lt;/td&gt;&lt;td&gt;ArrangementId&lt;br&gt;VideoRoomId&lt;br&gt;&lt;font color=&quot;#0000ff&quot;&gt;MeetingRecordScreenUrl&lt;/font&gt;&lt;br&gt;……&lt;/td&gt;&lt;/tr&gt;&lt;/tbody&gt;&lt;/table&gt;" style="verticalAlign=top;align=left;overflow=fill;html=1;fillColor=#dae8fc;strokeColor=#6c8ebf;" parent="1" vertex="1">
          <mxGeometry x="410" y="1550" width="180" height="90" as="geometry" />
        </mxCell>
        <mxCell id="yOBWlnK-e6VTriVFLW_p-40" value="&lt;div style=&quot;box-sizing: border-box ; width: 100% ; background: #e4e4e4 ; padding: 2px&quot;&gt;面试&lt;/div&gt;&lt;table style=&quot;width: 100% ; font-size: 1em&quot; cellpadding=&quot;2&quot; cellspacing=&quot;0&quot;&gt;&lt;tbody&gt;&lt;tr&gt;&lt;td&gt;PK&lt;/td&gt;&lt;td&gt;InterviewId&lt;/td&gt;&lt;/tr&gt;&lt;tr&gt;&lt;td&gt;&lt;br&gt;&lt;/td&gt;&lt;td&gt;ArrangementId&lt;br&gt;ScheduleId&lt;br&gt;……&lt;/td&gt;&lt;/tr&gt;&lt;/tbody&gt;&lt;/table&gt;" style="verticalAlign=top;align=left;overflow=fill;html=1;" parent="1" vertex="1">
          <mxGeometry x="690" y="1550" width="180" height="90" as="geometry" />
        </mxCell>
        <mxCell id="L0MEZrE-DLsut9pZWQ_O-78" style="edgeStyle=orthogonalEdgeStyle;rounded=0;orthogonalLoop=1;jettySize=auto;html=1;entryX=1;entryY=0.5;entryDx=0;entryDy=0;labelBackgroundColor=#FFFFFF;" parent="1" source="yOBWlnK-e6VTriVFLW_p-41" target="L0MEZrE-DLsut9pZWQ_O-75" edge="1">
          <mxGeometry relative="1" as="geometry">
            <Array as="points">
              <mxPoint x="900" y="1765" />
              <mxPoint x="900" y="1420" />
            </Array>
          </mxGeometry>
        </mxCell>
        <mxCell id="qomqAFSf7AB_BySmps6i-64" value="1：n" style="edgeLabel;html=1;align=center;verticalAlign=middle;resizable=0;points=[];" vertex="1" connectable="0" parent="L0MEZrE-DLsut9pZWQ_O-78">
          <mxGeometry x="-0.0599" y="-1" relative="1" as="geometry">
            <mxPoint as="offset" />
          </mxGeometry>
        </mxCell>
        <mxCell id="yOBWlnK-e6VTriVFLW_p-41" value="&lt;div style=&quot;box-sizing: border-box ; width: 100% ; background: #e4e4e4 ; padding: 2px&quot;&gt;视频面试会议&lt;/div&gt;&lt;table style=&quot;width: 100% ; font-size: 1em&quot; cellpadding=&quot;2&quot; cellspacing=&quot;0&quot;&gt;&lt;tbody&gt;&lt;tr&gt;&lt;td&gt;PK&lt;/td&gt;&lt;td&gt;VideoMeetingId&lt;/td&gt;&lt;/tr&gt;&lt;tr&gt;&lt;td&gt;&lt;br&gt;&lt;/td&gt;&lt;td&gt;VideoRoomUrl&lt;br&gt;VideoRoomCode&lt;br&gt;VideoRoomPassword&lt;br&gt;……&lt;/td&gt;&lt;/tr&gt;&lt;/tbody&gt;&lt;/table&gt;" style="verticalAlign=top;align=left;overflow=fill;html=1;" parent="1" vertex="1">
          <mxGeometry x="410" y="1720" width="180" height="90" as="geometry" />
        </mxCell>
        <mxCell id="yOBWlnK-e6VTriVFLW_p-42" value="用户操作" style="swimlane;fontColor=#000000;" parent="1" vertex="1">
          <mxGeometry x="70" y="1840" width="160" height="450" as="geometry" />
        </mxCell>
        <mxCell id="yOBWlnK-e6VTriVFLW_p-48" value="安排面试" style="rounded=0;whiteSpace=wrap;html=1;fontColor=#000000;" parent="yOBWlnK-e6VTriVFLW_p-42" vertex="1">
          <mxGeometry x="20" y="60" width="120" height="40" as="geometry" />
        </mxCell>
        <mxCell id="yOBWlnK-e6VTriVFLW_p-43" value="前端页面" style="swimlane;fontColor=#000000;" parent="1" vertex="1">
          <mxGeometry x="230" y="1840" width="170" height="450" as="geometry" />
        </mxCell>
        <mxCell id="yOBWlnK-e6VTriVFLW_p-51" value="获取推屏信息" style="rounded=0;whiteSpace=wrap;html=1;fontColor=#000000;" parent="yOBWlnK-e6VTriVFLW_p-43" vertex="1">
          <mxGeometry x="25" y="60" width="120" height="40" as="geometry" />
        </mxCell>
        <mxCell id="yOBWlnK-e6VTriVFLW_p-71" value="" style="edgeStyle=orthogonalEdgeStyle;rounded=0;orthogonalLoop=1;jettySize=auto;html=1;fontColor=#000000;" parent="yOBWlnK-e6VTriVFLW_p-43" source="yOBWlnK-e6VTriVFLW_p-57" target="yOBWlnK-e6VTriVFLW_p-70" edge="1">
          <mxGeometry relative="1" as="geometry" />
        </mxCell>
        <mxCell id="yOBWlnK-e6VTriVFLW_p-57" value="推屏渲染客开按钮、自定义视频工具字段" style="rounded=0;whiteSpace=wrap;html=1;fillColor=#dae8fc;strokeColor=#6c8ebf;" parent="yOBWlnK-e6VTriVFLW_p-43" vertex="1">
          <mxGeometry x="25" y="120" width="120" height="40" as="geometry" />
        </mxCell>
        <mxCell id="yOBWlnK-e6VTriVFLW_p-60" value="提交安排面试信息" style="rounded=0;whiteSpace=wrap;html=1;fontColor=#000000;" parent="yOBWlnK-e6VTriVFLW_p-43" vertex="1">
          <mxGeometry x="25" y="330" width="120" height="40" as="geometry" />
        </mxCell>
        <mxCell id="yOBWlnK-e6VTriVFLW_p-65" value="提交安排面试信息" style="rounded=0;whiteSpace=wrap;html=1;fontColor=#000000;" parent="yOBWlnK-e6VTriVFLW_p-43" vertex="1">
          <mxGeometry x="25" y="260" width="120" height="40" as="geometry" />
        </mxCell>
        <mxCell id="yOBWlnK-e6VTriVFLW_p-70" value="获取视频链接" style="rounded=0;whiteSpace=wrap;html=1;fontColor=#000000;" parent="yOBWlnK-e6VTriVFLW_p-43" vertex="1">
          <mxGeometry x="25" y="190" width="120" height="40" as="geometry" />
        </mxCell>
        <mxCell id="yOBWlnK-e6VTriVFLW_p-44" value="面试ESB" style="swimlane;fontColor=#000000;" parent="1" vertex="1">
          <mxGeometry x="400" y="1840" width="170" height="450" as="geometry" />
        </mxCell>
        <mxCell id="yOBWlnK-e6VTriVFLW_p-52" value="获取客开按钮、自定义视频工具字段" style="rounded=0;whiteSpace=wrap;html=1;fillColor=#dae8fc;strokeColor=#6c8ebf;" parent="yOBWlnK-e6VTriVFLW_p-44" vertex="1">
          <mxGeometry x="25" y="60" width="120" height="40" as="geometry" />
        </mxCell>
        <mxCell id="yOBWlnK-e6VTriVFLW_p-67" value="安排面试&lt;br&gt;自定义视频工具字段" style="rounded=0;whiteSpace=wrap;html=1;fontColor=#000000;" parent="yOBWlnK-e6VTriVFLW_p-44" vertex="1">
          <mxGeometry x="25" y="260" width="120" height="40" as="geometry" />
        </mxCell>
        <mxCell id="yOBWlnK-e6VTriVFLW_p-72" value="获取自定义视频工具信息" style="rounded=0;whiteSpace=wrap;html=1;fontColor=#000000;" parent="yOBWlnK-e6VTriVFLW_p-44" vertex="1">
          <mxGeometry x="25" y="190" width="120" height="40" as="geometry" />
        </mxCell>
        <mxCell id="yOBWlnK-e6VTriVFLW_p-45" value="安排面试消费端" style="swimlane;fontColor=#000000;" parent="1" vertex="1">
          <mxGeometry x="570" y="1840" width="170" height="450" as="geometry" />
        </mxCell>
        <mxCell id="yOBWlnK-e6VTriVFLW_p-69" value="给应聘者面试官&lt;br&gt;发通知" style="rounded=0;whiteSpace=wrap;html=1;fontColor=#000000;" parent="yOBWlnK-e6VTriVFLW_p-45" vertex="1">
          <mxGeometry x="25" y="260" width="120" height="40" as="geometry" />
        </mxCell>
        <mxCell id="yOBWlnK-e6VTriVFLW_p-46" value="面试通知消费端" style="swimlane;fontColor=#000000;" parent="1" vertex="1">
          <mxGeometry x="740" y="1840" width="170" height="450" as="geometry" />
        </mxCell>
        <mxCell id="yOBWlnK-e6VTriVFLW_p-47" value="客开" style="swimlane;fontColor=#000000;" parent="1" vertex="1">
          <mxGeometry x="910" y="1840" width="170" height="450" as="geometry" />
        </mxCell>
        <mxCell id="yOBWlnK-e6VTriVFLW_p-53" value="GetInterviewBasicInfo" style="rounded=0;whiteSpace=wrap;html=1;fontColor=#000000;" parent="yOBWlnK-e6VTriVFLW_p-47" vertex="1">
          <mxGeometry x="25" y="190" width="120" height="40" as="geometry" />
        </mxCell>
        <mxCell id="yOBWlnK-e6VTriVFLW_p-54" style="edgeStyle=orthogonalEdgeStyle;rounded=0;orthogonalLoop=1;jettySize=auto;html=1;entryX=0;entryY=0.5;entryDx=0;entryDy=0;fontColor=#000000;" parent="1" source="yOBWlnK-e6VTriVFLW_p-48" target="yOBWlnK-e6VTriVFLW_p-51" edge="1">
          <mxGeometry relative="1" as="geometry" />
        </mxCell>
        <mxCell id="yOBWlnK-e6VTriVFLW_p-55" style="edgeStyle=orthogonalEdgeStyle;rounded=0;orthogonalLoop=1;jettySize=auto;html=1;fontColor=#000000;" parent="1" source="yOBWlnK-e6VTriVFLW_p-51" target="yOBWlnK-e6VTriVFLW_p-52" edge="1">
          <mxGeometry relative="1" as="geometry" />
        </mxCell>
        <mxCell id="yOBWlnK-e6VTriVFLW_p-58" style="edgeStyle=orthogonalEdgeStyle;rounded=0;orthogonalLoop=1;jettySize=auto;html=1;entryX=1;entryY=0.5;entryDx=0;entryDy=0;fontColor=#000000;" parent="1" source="yOBWlnK-e6VTriVFLW_p-52" target="yOBWlnK-e6VTriVFLW_p-57" edge="1">
          <mxGeometry relative="1" as="geometry">
            <Array as="points">
              <mxPoint x="550" y="1920" />
              <mxPoint x="550" y="1980" />
            </Array>
          </mxGeometry>
        </mxCell>
        <mxCell id="yOBWlnK-e6VTriVFLW_p-68" value="" style="edgeStyle=orthogonalEdgeStyle;rounded=0;orthogonalLoop=1;jettySize=auto;html=1;fontColor=#000000;" parent="1" source="yOBWlnK-e6VTriVFLW_p-65" target="yOBWlnK-e6VTriVFLW_p-67" edge="1">
          <mxGeometry relative="1" as="geometry" />
        </mxCell>
        <mxCell id="yOBWlnK-e6VTriVFLW_p-73" value="" style="edgeStyle=orthogonalEdgeStyle;rounded=0;orthogonalLoop=1;jettySize=auto;html=1;fontColor=#000000;" parent="1" source="yOBWlnK-e6VTriVFLW_p-70" target="yOBWlnK-e6VTriVFLW_p-72" edge="1">
          <mxGeometry relative="1" as="geometry" />
        </mxCell>
        <mxCell id="yOBWlnK-e6VTriVFLW_p-74" style="edgeStyle=orthogonalEdgeStyle;rounded=0;orthogonalLoop=1;jettySize=auto;html=1;entryX=0;entryY=0.5;entryDx=0;entryDy=0;fontColor=#000000;" parent="1" source="yOBWlnK-e6VTriVFLW_p-72" target="yOBWlnK-e6VTriVFLW_p-53" edge="1">
          <mxGeometry relative="1" as="geometry">
            <Array as="points">
              <mxPoint x="485" y="2000" />
              <mxPoint x="990" y="2000" />
              <mxPoint x="990" y="2050" />
            </Array>
          </mxGeometry>
        </mxCell>
        <mxCell id="yOBWlnK-e6VTriVFLW_p-87" value="" style="edgeStyle=orthogonalEdgeStyle;rounded=0;orthogonalLoop=1;jettySize=auto;html=1;fontColor=#000000;" parent="1" source="yOBWlnK-e6VTriVFLW_p-76" target="yOBWlnK-e6VTriVFLW_p-82" edge="1">
          <mxGeometry relative="1" as="geometry" />
        </mxCell>
        <mxCell id="yOBWlnK-e6VTriVFLW_p-76" value="安排面试" style="rounded=0;whiteSpace=wrap;html=1;fontColor=#000000;" parent="1" vertex="1">
          <mxGeometry x="410" y="2390" width="100" height="40" as="geometry" />
        </mxCell>
        <mxCell id="yOBWlnK-e6VTriVFLW_p-92" value="" style="edgeStyle=orthogonalEdgeStyle;rounded=0;orthogonalLoop=1;jettySize=auto;html=1;fontColor=#000000;" parent="1" source="yOBWlnK-e6VTriVFLW_p-77" target="yOBWlnK-e6VTriVFLW_p-83" edge="1">
          <mxGeometry relative="1" as="geometry" />
        </mxCell>
        <mxCell id="yOBWlnK-e6VTriVFLW_p-77" value="触发器埋点&lt;br&gt;获取视频信息" style="rounded=0;whiteSpace=wrap;html=1;fillColor=#dae8fc;strokeColor=#6c8ebf;" parent="1" vertex="1">
          <mxGeometry x="410" y="2680" width="100" height="40" as="geometry" />
        </mxCell>
        <mxCell id="yOBWlnK-e6VTriVFLW_p-89" value="f否" style="edgeStyle=orthogonalEdgeStyle;rounded=0;orthogonalLoop=1;jettySize=auto;html=1;fontColor=#000000;" parent="1" source="yOBWlnK-e6VTriVFLW_p-78" target="yOBWlnK-e6VTriVFLW_p-79" edge="1">
          <mxGeometry relative="1" as="geometry" />
        </mxCell>
        <mxCell id="yOBWlnK-e6VTriVFLW_p-91" value="是" style="edgeStyle=orthogonalEdgeStyle;rounded=0;orthogonalLoop=1;jettySize=auto;html=1;fontColor=#000000;" parent="1" source="yOBWlnK-e6VTriVFLW_p-78" target="yOBWlnK-e6VTriVFLW_p-77" edge="1">
          <mxGeometry relative="1" as="geometry" />
        </mxCell>
        <mxCell id="yOBWlnK-e6VTriVFLW_p-78" value="是否&lt;br&gt;客开定制" style="rhombus;whiteSpace=wrap;html=1;fillColor=#dae8fc;strokeColor=#6c8ebf;" parent="1" vertex="1">
          <mxGeometry x="425" y="2565" width="70" height="70" as="geometry" />
        </mxCell>
        <mxCell id="yOBWlnK-e6VTriVFLW_p-90" style="edgeStyle=orthogonalEdgeStyle;rounded=0;orthogonalLoop=1;jettySize=auto;html=1;entryX=0;entryY=0.5;entryDx=0;entryDy=0;fontColor=#000000;" parent="1" source="yOBWlnK-e6VTriVFLW_p-79" target="yOBWlnK-e6VTriVFLW_p-83" edge="1">
          <mxGeometry relative="1" as="geometry">
            <Array as="points">
              <mxPoint x="310" y="2780" />
            </Array>
          </mxGeometry>
        </mxCell>
        <mxCell id="yOBWlnK-e6VTriVFLW_p-79" value="手动填写视频信息" style="rounded=0;whiteSpace=wrap;html=1;fontColor=#000000;" parent="1" vertex="1">
          <mxGeometry x="260" y="2580" width="100" height="40" as="geometry" />
        </mxCell>
        <mxCell id="yOBWlnK-e6VTriVFLW_p-88" value="" style="edgeStyle=orthogonalEdgeStyle;rounded=0;orthogonalLoop=1;jettySize=auto;html=1;fontColor=#000000;" parent="1" source="yOBWlnK-e6VTriVFLW_p-82" target="yOBWlnK-e6VTriVFLW_p-78" edge="1">
          <mxGeometry relative="1" as="geometry" />
        </mxCell>
        <mxCell id="yOBWlnK-e6VTriVFLW_p-82" value="获取自定义视频工具展示字段" style="rounded=0;whiteSpace=wrap;html=1;fillColor=#dae8fc;strokeColor=#6c8ebf;" parent="1" vertex="1">
          <mxGeometry x="410" y="2480" width="100" height="40" as="geometry" />
        </mxCell>
        <mxCell id="yOBWlnK-e6VTriVFLW_p-93" value="" style="edgeStyle=orthogonalEdgeStyle;rounded=0;orthogonalLoop=1;jettySize=auto;html=1;fontColor=#000000;" parent="1" source="yOBWlnK-e6VTriVFLW_p-83" target="yOBWlnK-e6VTriVFLW_p-84" edge="1">
          <mxGeometry relative="1" as="geometry" />
        </mxCell>
        <mxCell id="yOBWlnK-e6VTriVFLW_p-83" value="保存相应字段值" style="rounded=0;whiteSpace=wrap;html=1;fillColor=#dae8fc;strokeColor=#6c8ebf;" parent="1" vertex="1">
          <mxGeometry x="410" y="2760" width="100" height="40" as="geometry" />
        </mxCell>
        <mxCell id="yOBWlnK-e6VTriVFLW_p-84" value="给面试官应聘者&lt;br&gt;发通知" style="rounded=0;whiteSpace=wrap;html=1;fillColor=#dae8fc;strokeColor=#6c8ebf;" parent="1" vertex="1">
          <mxGeometry x="410" y="2840" width="100" height="40" as="geometry" />
        </mxCell>
        <mxCell id="L0MEZrE-DLsut9pZWQ_O-9" value="" style="edgeStyle=orthogonalEdgeStyle;rounded=0;orthogonalLoop=1;jettySize=auto;html=1;" parent="1" source="L0MEZrE-DLsut9pZWQ_O-1" target="L0MEZrE-DLsut9pZWQ_O-2" edge="1">
          <mxGeometry relative="1" as="geometry" />
        </mxCell>
        <mxCell id="L0MEZrE-DLsut9pZWQ_O-1" value="安排腾讯会议&lt;br&gt;视频面试" style="rounded=0;whiteSpace=wrap;html=1;fontColor=#000000;" parent="1" vertex="1">
          <mxGeometry x="820" y="2390" width="100" height="40" as="geometry" />
        </mxCell>
        <mxCell id="L0MEZrE-DLsut9pZWQ_O-10" value="" style="edgeStyle=orthogonalEdgeStyle;rounded=0;orthogonalLoop=1;jettySize=auto;html=1;" parent="1" source="L0MEZrE-DLsut9pZWQ_O-2" target="L0MEZrE-DLsut9pZWQ_O-3" edge="1">
          <mxGeometry relative="1" as="geometry" />
        </mxCell>
        <mxCell id="L0MEZrE-DLsut9pZWQ_O-2" value="安排腾讯会议&lt;br&gt;面试间" style="rounded=0;whiteSpace=wrap;html=1;fontColor=#000000;" parent="1" vertex="1">
          <mxGeometry x="820" y="2460" width="100" height="40" as="geometry" />
        </mxCell>
        <mxCell id="L0MEZrE-DLsut9pZWQ_O-11" value="" style="edgeStyle=orthogonalEdgeStyle;rounded=0;orthogonalLoop=1;jettySize=auto;html=1;" parent="1" source="L0MEZrE-DLsut9pZWQ_O-3" target="L0MEZrE-DLsut9pZWQ_O-4" edge="1">
          <mxGeometry relative="1" as="geometry" />
        </mxCell>
        <mxCell id="L0MEZrE-DLsut9pZWQ_O-12" value="是" style="edgeLabel;html=1;align=center;verticalAlign=middle;resizable=0;points=[];" parent="L0MEZrE-DLsut9pZWQ_O-11" vertex="1" connectable="0">
          <mxGeometry x="-0.2282" y="-1" relative="1" as="geometry">
            <mxPoint as="offset" />
          </mxGeometry>
        </mxCell>
        <mxCell id="L0MEZrE-DLsut9pZWQ_O-13" value="否" style="edgeStyle=orthogonalEdgeStyle;rounded=0;orthogonalLoop=1;jettySize=auto;html=1;" parent="1" source="L0MEZrE-DLsut9pZWQ_O-3" target="L0MEZrE-DLsut9pZWQ_O-6" edge="1">
          <mxGeometry relative="1" as="geometry" />
        </mxCell>
        <mxCell id="L0MEZrE-DLsut9pZWQ_O-3" value="单人面试" style="rhombus;whiteSpace=wrap;html=1;" parent="1" vertex="1">
          <mxGeometry x="835" y="2535" width="70" height="70" as="geometry" />
        </mxCell>
        <mxCell id="L0MEZrE-DLsut9pZWQ_O-14" value="" style="edgeStyle=orthogonalEdgeStyle;rounded=0;orthogonalLoop=1;jettySize=auto;html=1;" parent="1" source="L0MEZrE-DLsut9pZWQ_O-4" target="L0MEZrE-DLsut9pZWQ_O-5" edge="1">
          <mxGeometry relative="1" as="geometry" />
        </mxCell>
        <mxCell id="L0MEZrE-DLsut9pZWQ_O-4" value="为面试官生成&lt;br&gt;专属Url" style="rounded=0;whiteSpace=wrap;html=1;fontColor=#000000;" parent="1" vertex="1">
          <mxGeometry x="990" y="2550" width="100" height="40" as="geometry" />
        </mxCell>
        <mxCell id="L0MEZrE-DLsut9pZWQ_O-5" value="查看单人简历elink&lt;br&gt;生成简历查看码" style="rounded=0;whiteSpace=wrap;html=1;fontColor=#000000;" parent="1" vertex="1">
          <mxGeometry x="990" y="2640" width="100" height="40" as="geometry" />
        </mxCell>
        <mxCell id="L0MEZrE-DLsut9pZWQ_O-15" value="" style="edgeStyle=orthogonalEdgeStyle;rounded=0;orthogonalLoop=1;jettySize=auto;html=1;" parent="1" source="L0MEZrE-DLsut9pZWQ_O-6" target="L0MEZrE-DLsut9pZWQ_O-7" edge="1">
          <mxGeometry relative="1" as="geometry" />
        </mxCell>
        <mxCell id="L0MEZrE-DLsut9pZWQ_O-6" value="为面试官生成&lt;br&gt;专属Url" style="rounded=0;whiteSpace=wrap;html=1;fontColor=#000000;" parent="1" vertex="1">
          <mxGeometry x="820" y="2640" width="100" height="40" as="geometry" />
        </mxCell>
        <mxCell id="L0MEZrE-DLsut9pZWQ_O-42" value="" style="edgeStyle=orthogonalEdgeStyle;rounded=0;orthogonalLoop=1;jettySize=auto;html=1;labelBackgroundColor=#99FFFF;" parent="1" source="L0MEZrE-DLsut9pZWQ_O-7" target="L0MEZrE-DLsut9pZWQ_O-30" edge="1">
          <mxGeometry relative="1" as="geometry" />
        </mxCell>
        <mxCell id="L0MEZrE-DLsut9pZWQ_O-7" value="构造多人查看简历elink链接" style="rounded=0;whiteSpace=wrap;html=1;fillColor=#dae8fc;strokeColor=#6c8ebf;" parent="1" vertex="1">
          <mxGeometry x="820" y="2720" width="100" height="40" as="geometry" />
        </mxCell>
        <mxCell id="L0MEZrE-DLsut9pZWQ_O-44" value="" style="edgeStyle=orthogonalEdgeStyle;rounded=0;orthogonalLoop=1;jettySize=auto;html=1;labelBackgroundColor=#99FFFF;" parent="1" source="L0MEZrE-DLsut9pZWQ_O-18" target="L0MEZrE-DLsut9pZWQ_O-43" edge="1">
          <mxGeometry relative="1" as="geometry" />
        </mxCell>
        <mxCell id="L0MEZrE-DLsut9pZWQ_O-18" value="多人查看简历&lt;br&gt;页面" style="rounded=0;whiteSpace=wrap;html=1;fontColor=#000000;" parent="1" vertex="1">
          <mxGeometry x="1230" y="2390" width="100" height="40" as="geometry" />
        </mxCell>
        <mxCell id="L0MEZrE-DLsut9pZWQ_O-48" value="是" style="edgeStyle=orthogonalEdgeStyle;rounded=0;orthogonalLoop=1;jettySize=auto;html=1;labelBackgroundColor=#FFFFFF;" parent="1" source="L0MEZrE-DLsut9pZWQ_O-20" target="L0MEZrE-DLsut9pZWQ_O-46" edge="1">
          <mxGeometry relative="1" as="geometry" />
        </mxCell>
        <mxCell id="L0MEZrE-DLsut9pZWQ_O-49" style="edgeStyle=orthogonalEdgeStyle;rounded=0;orthogonalLoop=1;jettySize=auto;html=1;labelBackgroundColor=#FFFFFF;" parent="1" source="L0MEZrE-DLsut9pZWQ_O-20" target="L0MEZrE-DLsut9pZWQ_O-23" edge="1">
          <mxGeometry relative="1" as="geometry" />
        </mxCell>
        <mxCell id="L0MEZrE-DLsut9pZWQ_O-50" value="小组面试" style="edgeLabel;html=1;align=center;verticalAlign=middle;resizable=0;points=[];" parent="L0MEZrE-DLsut9pZWQ_O-49" vertex="1" connectable="0">
          <mxGeometry x="-0.03" y="-4" relative="1" as="geometry">
            <mxPoint as="offset" />
          </mxGeometry>
        </mxCell>
        <mxCell id="L0MEZrE-DLsut9pZWQ_O-20" value="集体面试" style="rhombus;whiteSpace=wrap;html=1;fillColor=#dae8fc;strokeColor=#6c8ebf;" parent="1" vertex="1">
          <mxGeometry x="1245" y="2550" width="70" height="70" as="geometry" />
        </mxCell>
        <mxCell id="L0MEZrE-DLsut9pZWQ_O-53" style="edgeStyle=orthogonalEdgeStyle;rounded=0;orthogonalLoop=1;jettySize=auto;html=1;entryX=1;entryY=0.5;entryDx=0;entryDy=0;labelBackgroundColor=#FFFFFF;" parent="1" source="L0MEZrE-DLsut9pZWQ_O-23" target="L0MEZrE-DLsut9pZWQ_O-51" edge="1">
          <mxGeometry relative="1" as="geometry" />
        </mxCell>
        <mxCell id="L0MEZrE-DLsut9pZWQ_O-23" value="取当前日程下的&lt;br&gt;所有应聘者" style="rounded=0;whiteSpace=wrap;html=1;fillColor=#dae8fc;strokeColor=#6c8ebf;" parent="1" vertex="1">
          <mxGeometry x="1380" y="2670" width="100" height="40" as="geometry" />
        </mxCell>
        <mxCell id="L0MEZrE-DLsut9pZWQ_O-39" value="" style="edgeStyle=orthogonalEdgeStyle;rounded=0;orthogonalLoop=1;jettySize=auto;html=1;" parent="1" source="L0MEZrE-DLsut9pZWQ_O-29" target="L0MEZrE-DLsut9pZWQ_O-37" edge="1">
          <mxGeometry relative="1" as="geometry" />
        </mxCell>
        <mxCell id="L0MEZrE-DLsut9pZWQ_O-29" value="batchId为ArrangementId" style="rounded=0;whiteSpace=wrap;html=1;fillColor=#dae8fc;strokeColor=#6c8ebf;" parent="1" vertex="1">
          <mxGeometry x="820" y="2905" width="100" height="40" as="geometry" />
        </mxCell>
        <mxCell id="L0MEZrE-DLsut9pZWQ_O-34" value="是" style="edgeStyle=orthogonalEdgeStyle;rounded=0;orthogonalLoop=1;jettySize=auto;html=1;" parent="1" source="L0MEZrE-DLsut9pZWQ_O-30" target="L0MEZrE-DLsut9pZWQ_O-29" edge="1">
          <mxGeometry relative="1" as="geometry" />
        </mxCell>
        <mxCell id="L0MEZrE-DLsut9pZWQ_O-35" style="edgeStyle=orthogonalEdgeStyle;rounded=0;orthogonalLoop=1;jettySize=auto;html=1;" parent="1" source="L0MEZrE-DLsut9pZWQ_O-30" target="L0MEZrE-DLsut9pZWQ_O-31" edge="1">
          <mxGeometry relative="1" as="geometry" />
        </mxCell>
        <mxCell id="L0MEZrE-DLsut9pZWQ_O-36" value="否" style="edgeLabel;html=1;align=center;verticalAlign=middle;resizable=0;points=[];" parent="L0MEZrE-DLsut9pZWQ_O-35" vertex="1" connectable="0">
          <mxGeometry x="-0.2356" y="-1" relative="1" as="geometry">
            <mxPoint as="offset" />
          </mxGeometry>
        </mxCell>
        <mxCell id="L0MEZrE-DLsut9pZWQ_O-30" value="集体面试" style="rhombus;whiteSpace=wrap;html=1;fillColor=#dae8fc;strokeColor=#6c8ebf;" parent="1" vertex="1">
          <mxGeometry x="835" y="2800" width="70" height="70" as="geometry" />
        </mxCell>
        <mxCell id="L0MEZrE-DLsut9pZWQ_O-40" style="edgeStyle=orthogonalEdgeStyle;rounded=0;orthogonalLoop=1;jettySize=auto;html=1;entryX=1;entryY=0.5;entryDx=0;entryDy=0;" parent="1" source="L0MEZrE-DLsut9pZWQ_O-31" target="L0MEZrE-DLsut9pZWQ_O-37" edge="1">
          <mxGeometry relative="1" as="geometry" />
        </mxCell>
        <mxCell id="L0MEZrE-DLsut9pZWQ_O-31" value="batchId为ScheduleId" style="rounded=0;whiteSpace=wrap;html=1;fillColor=#dae8fc;strokeColor=#6c8ebf;" parent="1" vertex="1">
          <mxGeometry x="1000" y="2905" width="100" height="40" as="geometry" />
        </mxCell>
        <mxCell id="L0MEZrE-DLsut9pZWQ_O-41" value="" style="edgeStyle=orthogonalEdgeStyle;rounded=0;orthogonalLoop=1;jettySize=auto;html=1;" parent="1" source="L0MEZrE-DLsut9pZWQ_O-37" target="L0MEZrE-DLsut9pZWQ_O-38" edge="1">
          <mxGeometry relative="1" as="geometry" />
        </mxCell>
        <mxCell id="L0MEZrE-DLsut9pZWQ_O-37" value="生成多人查看简历elink" style="rounded=0;whiteSpace=wrap;html=1;fillColor=#dae8fc;strokeColor=#6c8ebf;" parent="1" vertex="1">
          <mxGeometry x="820" y="2980" width="100" height="40" as="geometry" />
        </mxCell>
        <mxCell id="L0MEZrE-DLsut9pZWQ_O-38" value="生成简历查看码" style="rounded=0;whiteSpace=wrap;html=1;fontColor=#000000;" parent="1" vertex="1">
          <mxGeometry x="820" y="3060" width="100" height="40" as="geometry" />
        </mxCell>
        <mxCell id="L0MEZrE-DLsut9pZWQ_O-45" value="" style="edgeStyle=orthogonalEdgeStyle;rounded=0;orthogonalLoop=1;jettySize=auto;html=1;labelBackgroundColor=#99FFFF;" parent="1" source="L0MEZrE-DLsut9pZWQ_O-43" target="L0MEZrE-DLsut9pZWQ_O-20" edge="1">
          <mxGeometry relative="1" as="geometry" />
        </mxCell>
        <mxCell id="L0MEZrE-DLsut9pZWQ_O-43" value="获取应聘者信息" style="rounded=0;whiteSpace=wrap;html=1;fontColor=#000000;" parent="1" vertex="1">
          <mxGeometry x="1230" y="2470" width="100" height="40" as="geometry" />
        </mxCell>
        <mxCell id="L0MEZrE-DLsut9pZWQ_O-52" value="" style="edgeStyle=orthogonalEdgeStyle;rounded=0;orthogonalLoop=1;jettySize=auto;html=1;labelBackgroundColor=#FFFFFF;" parent="1" source="L0MEZrE-DLsut9pZWQ_O-46" target="L0MEZrE-DLsut9pZWQ_O-51" edge="1">
          <mxGeometry relative="1" as="geometry" />
        </mxCell>
        <mxCell id="L0MEZrE-DLsut9pZWQ_O-46" value="取当前安排下的&lt;br&gt;所有应聘者" style="rounded=0;whiteSpace=wrap;html=1;fillColor=#dae8fc;strokeColor=#6c8ebf;" parent="1" vertex="1">
          <mxGeometry x="1230" y="2670" width="100" height="40" as="geometry" />
        </mxCell>
        <mxCell id="L0MEZrE-DLsut9pZWQ_O-51" value="应聘者基本信息&lt;br&gt;签到状态面试结果" style="rounded=0;whiteSpace=wrap;html=1;fontColor=#000000;" parent="1" vertex="1">
          <mxGeometry x="1230" y="2770" width="100" height="40" as="geometry" />
        </mxCell>
        <mxCell id="L0MEZrE-DLsut9pZWQ_O-59" value="" style="edgeStyle=orthogonalEdgeStyle;rounded=0;orthogonalLoop=1;jettySize=auto;html=1;labelBackgroundColor=#FFFFFF;" parent="1" source="L0MEZrE-DLsut9pZWQ_O-54" target="L0MEZrE-DLsut9pZWQ_O-55" edge="1">
          <mxGeometry relative="1" as="geometry" />
        </mxCell>
        <mxCell id="L0MEZrE-DLsut9pZWQ_O-54" value="备注@范围放开" style="rounded=0;whiteSpace=wrap;html=1;fontColor=#000000;" parent="1" vertex="1">
          <mxGeometry x="1720" y="2390" width="100" height="40" as="geometry" />
        </mxCell>
        <mxCell id="L0MEZrE-DLsut9pZWQ_O-60" value="" style="edgeStyle=orthogonalEdgeStyle;rounded=0;orthogonalLoop=1;jettySize=auto;html=1;labelBackgroundColor=#FFFFFF;" parent="1" source="L0MEZrE-DLsut9pZWQ_O-55" target="L0MEZrE-DLsut9pZWQ_O-56" edge="1">
          <mxGeometry relative="1" as="geometry" />
        </mxCell>
        <mxCell id="L0MEZrE-DLsut9pZWQ_O-55" value="构造elink链接" style="rounded=0;whiteSpace=wrap;html=1;fontColor=#000000;" parent="1" vertex="1">
          <mxGeometry x="1720" y="2460" width="100" height="40" as="geometry" />
        </mxCell>
        <mxCell id="L0MEZrE-DLsut9pZWQ_O-61" value="是" style="edgeStyle=orthogonalEdgeStyle;rounded=0;orthogonalLoop=1;jettySize=auto;html=1;labelBackgroundColor=#FFFFFF;" parent="1" source="L0MEZrE-DLsut9pZWQ_O-56" target="L0MEZrE-DLsut9pZWQ_O-58" edge="1">
          <mxGeometry relative="1" as="geometry" />
        </mxCell>
        <mxCell id="L0MEZrE-DLsut9pZWQ_O-62" style="edgeStyle=orthogonalEdgeStyle;rounded=0;orthogonalLoop=1;jettySize=auto;html=1;entryX=0.5;entryY=0;entryDx=0;entryDy=0;labelBackgroundColor=#FFFFFF;" parent="1" source="L0MEZrE-DLsut9pZWQ_O-56" target="L0MEZrE-DLsut9pZWQ_O-57" edge="1">
          <mxGeometry relative="1" as="geometry" />
        </mxCell>
        <mxCell id="L0MEZrE-DLsut9pZWQ_O-63" value="否" style="edgeLabel;html=1;align=center;verticalAlign=middle;resizable=0;points=[];" parent="L0MEZrE-DLsut9pZWQ_O-62" vertex="1" connectable="0">
          <mxGeometry x="-0.0425" y="2" relative="1" as="geometry">
            <mxPoint as="offset" />
          </mxGeometry>
        </mxCell>
        <mxCell id="L0MEZrE-DLsut9pZWQ_O-56" value="邮件短信&lt;br&gt;通知" style="rhombus;whiteSpace=wrap;html=1;fillColor=#dae8fc;strokeColor=#6c8ebf;" parent="1" vertex="1">
          <mxGeometry x="1735" y="2530" width="70" height="70" as="geometry" />
        </mxCell>
        <mxCell id="L0MEZrE-DLsut9pZWQ_O-72" style="edgeStyle=orthogonalEdgeStyle;rounded=0;orthogonalLoop=1;jettySize=auto;html=1;entryX=1;entryY=0.5;entryDx=0;entryDy=0;labelBackgroundColor=#FFFFFF;" parent="1" source="L0MEZrE-DLsut9pZWQ_O-57" target="L0MEZrE-DLsut9pZWQ_O-68" edge="1">
          <mxGeometry relative="1" as="geometry">
            <Array as="points">
              <mxPoint x="1970" y="2850" />
            </Array>
          </mxGeometry>
        </mxCell>
        <mxCell id="L0MEZrE-DLsut9pZWQ_O-57" value="RemindAllUser：true" style="rounded=0;whiteSpace=wrap;html=1;fillColor=#dae8fc;strokeColor=#6c8ebf;" parent="1" vertex="1">
          <mxGeometry x="1920" y="2655" width="100" height="40" as="geometry" />
        </mxCell>
        <mxCell id="L0MEZrE-DLsut9pZWQ_O-64" style="edgeStyle=orthogonalEdgeStyle;rounded=0;orthogonalLoop=1;jettySize=auto;html=1;labelBackgroundColor=#FFFFFF;" parent="1" source="L0MEZrE-DLsut9pZWQ_O-58" target="L0MEZrE-DLsut9pZWQ_O-57" edge="1">
          <mxGeometry relative="1" as="geometry" />
        </mxCell>
        <mxCell id="L0MEZrE-DLsut9pZWQ_O-65" value="是" style="edgeLabel;html=1;align=center;verticalAlign=middle;resizable=0;points=[];" parent="L0MEZrE-DLsut9pZWQ_O-64" vertex="1" connectable="0">
          <mxGeometry x="-0.3024" y="2" relative="1" as="geometry">
            <mxPoint as="offset" />
          </mxGeometry>
        </mxCell>
        <mxCell id="L0MEZrE-DLsut9pZWQ_O-67" value="否" style="edgeStyle=orthogonalEdgeStyle;rounded=0;orthogonalLoop=1;jettySize=auto;html=1;labelBackgroundColor=#FFFFFF;" parent="1" source="L0MEZrE-DLsut9pZWQ_O-58" target="L0MEZrE-DLsut9pZWQ_O-66" edge="1">
          <mxGeometry relative="1" as="geometry" />
        </mxCell>
        <mxCell id="L0MEZrE-DLsut9pZWQ_O-58" value="开启灰度" style="rhombus;whiteSpace=wrap;html=1;fillColor=#dae8fc;strokeColor=#6c8ebf;" parent="1" vertex="1">
          <mxGeometry x="1735" y="2640" width="70" height="70" as="geometry" />
        </mxCell>
        <mxCell id="L0MEZrE-DLsut9pZWQ_O-70" value="" style="edgeStyle=orthogonalEdgeStyle;rounded=0;orthogonalLoop=1;jettySize=auto;html=1;labelBackgroundColor=#FFFFFF;" parent="1" source="L0MEZrE-DLsut9pZWQ_O-66" target="L0MEZrE-DLsut9pZWQ_O-68" edge="1">
          <mxGeometry relative="1" as="geometry" />
        </mxCell>
        <mxCell id="L0MEZrE-DLsut9pZWQ_O-66" value="RemindAllUser：false" style="rounded=0;whiteSpace=wrap;html=1;fillColor=#dae8fc;strokeColor=#6c8ebf;" parent="1" vertex="1">
          <mxGeometry x="1720" y="2760" width="100" height="40" as="geometry" />
        </mxCell>
        <mxCell id="L0MEZrE-DLsut9pZWQ_O-71" value="" style="edgeStyle=orthogonalEdgeStyle;rounded=0;orthogonalLoop=1;jettySize=auto;html=1;labelBackgroundColor=#FFFFFF;" parent="1" source="L0MEZrE-DLsut9pZWQ_O-68" target="L0MEZrE-DLsut9pZWQ_O-69" edge="1">
          <mxGeometry relative="1" as="geometry" />
        </mxCell>
        <mxCell id="L0MEZrE-DLsut9pZWQ_O-68" value="生成elink链接" style="rounded=0;whiteSpace=wrap;html=1;fontColor=#000000;" parent="1" vertex="1">
          <mxGeometry x="1720" y="2830" width="100" height="40" as="geometry" />
        </mxCell>
        <mxCell id="L0MEZrE-DLsut9pZWQ_O-69" value="发通知" style="rounded=0;whiteSpace=wrap;html=1;fontColor=#000000;" parent="1" vertex="1">
          <mxGeometry x="1720" y="2905" width="100" height="40" as="geometry" />
        </mxCell>
        <mxCell id="L0MEZrE-DLsut9pZWQ_O-73" value="构造elink链接" style="rounded=0;whiteSpace=wrap;html=1;fontColor=#000000;" parent="1" vertex="1">
          <mxGeometry x="1720" y="2460" width="100" height="40" as="geometry" />
        </mxCell>
        <mxCell id="L0MEZrE-DLsut9pZWQ_O-74" value="构造elink链接" style="rounded=0;whiteSpace=wrap;html=1;fillColor=#dae8fc;strokeColor=#6c8ebf;" parent="1" vertex="1">
          <mxGeometry x="1720" y="2460" width="100" height="40" as="geometry" />
        </mxCell>
        <mxCell id="L0MEZrE-DLsut9pZWQ_O-75" value="&lt;div style=&quot;box-sizing: border-box ; width: 100% ; background: #e4e4e4 ; padding: 2px&quot;&gt;视频面试成员&lt;/div&gt;&lt;table style=&quot;width: 100% ; font-size: 1em&quot; cellpadding=&quot;2&quot; cellspacing=&quot;0&quot;&gt;&lt;tbody&gt;&lt;tr&gt;&lt;td&gt;PK&lt;/td&gt;&lt;td&gt;&lt;span style=&quot;color: rgb(80 , 80 , 80) ; font-family: &amp;#34;arial&amp;#34; , &amp;#34;simsun&amp;#34; ; background-color: rgb(255 , 255 , 255)&quot;&gt;VideoInterviewMemberId&lt;/span&gt;&lt;br&gt;&lt;/td&gt;&lt;/tr&gt;&lt;tr&gt;&lt;td&gt;&lt;br&gt;&lt;/td&gt;&lt;td&gt;ArrangementId&lt;br&gt;ScheduleId&lt;br&gt;ResumePassCode&lt;br&gt;VideoRoomId&lt;/td&gt;&lt;/tr&gt;&lt;/tbody&gt;&lt;/table&gt;" style="verticalAlign=top;align=left;overflow=fill;html=1;" parent="1" vertex="1">
          <mxGeometry x="410" y="1370" width="180" height="100" as="geometry" />
        </mxCell>
        <mxCell id="L0MEZrE-DLsut9pZWQ_O-85" value="" style="edgeStyle=orthogonalEdgeStyle;rounded=0;orthogonalLoop=1;jettySize=auto;html=1;labelBackgroundColor=#FFFFFF;" parent="1" source="L0MEZrE-DLsut9pZWQ_O-79" target="L0MEZrE-DLsut9pZWQ_O-80" edge="1">
          <mxGeometry relative="1" as="geometry" />
        </mxCell>
        <mxCell id="L0MEZrE-DLsut9pZWQ_O-79" value="elink备注@人员" style="rounded=0;whiteSpace=wrap;html=1;fontColor=#000000;" parent="1" vertex="1">
          <mxGeometry x="2220" y="2380" width="100" height="40" as="geometry" />
        </mxCell>
        <mxCell id="L0MEZrE-DLsut9pZWQ_O-86" value="否" style="edgeStyle=orthogonalEdgeStyle;rounded=0;orthogonalLoop=1;jettySize=auto;html=1;labelBackgroundColor=#FFFFFF;" parent="1" source="L0MEZrE-DLsut9pZWQ_O-80" target="L0MEZrE-DLsut9pZWQ_O-83" edge="1">
          <mxGeometry relative="1" as="geometry" />
        </mxCell>
        <mxCell id="L0MEZrE-DLsut9pZWQ_O-87" style="edgeStyle=orthogonalEdgeStyle;rounded=0;orthogonalLoop=1;jettySize=auto;html=1;labelBackgroundColor=#FFFFFF;" parent="1" source="L0MEZrE-DLsut9pZWQ_O-80" target="L0MEZrE-DLsut9pZWQ_O-81" edge="1">
          <mxGeometry relative="1" as="geometry" />
        </mxCell>
        <mxCell id="L0MEZrE-DLsut9pZWQ_O-88" value="是" style="edgeLabel;html=1;align=center;verticalAlign=middle;resizable=0;points=[];" parent="L0MEZrE-DLsut9pZWQ_O-87" vertex="1" connectable="0">
          <mxGeometry x="0.4358" y="2" relative="1" as="geometry">
            <mxPoint as="offset" />
          </mxGeometry>
        </mxCell>
        <mxCell id="L0MEZrE-DLsut9pZWQ_O-80" value="remindAllUser" style="rhombus;whiteSpace=wrap;html=1;fillColor=#dae8fc;strokeColor=#6c8ebf;" parent="1" vertex="1">
          <mxGeometry x="2227.5" y="2470" width="85" height="70" as="geometry" />
        </mxCell>
        <mxCell id="L0MEZrE-DLsut9pZWQ_O-90" style="edgeStyle=orthogonalEdgeStyle;rounded=0;orthogonalLoop=1;jettySize=auto;html=1;entryX=1;entryY=0.5;entryDx=0;entryDy=0;labelBackgroundColor=#FFFFFF;" parent="1" source="L0MEZrE-DLsut9pZWQ_O-81" target="L0MEZrE-DLsut9pZWQ_O-84" edge="1">
          <mxGeometry relative="1" as="geometry" />
        </mxCell>
        <mxCell id="L0MEZrE-DLsut9pZWQ_O-81" value="根据searchKey获取全部人员" style="rounded=0;whiteSpace=wrap;html=1;fillColor=#dae8fc;strokeColor=#6c8ebf;" parent="1" vertex="1">
          <mxGeometry x="2400" y="2605" width="100" height="40" as="geometry" />
        </mxCell>
        <mxCell id="L0MEZrE-DLsut9pZWQ_O-89" value="" style="edgeStyle=orthogonalEdgeStyle;rounded=0;orthogonalLoop=1;jettySize=auto;html=1;labelBackgroundColor=#FFFFFF;" parent="1" source="L0MEZrE-DLsut9pZWQ_O-83" target="L0MEZrE-DLsut9pZWQ_O-84" edge="1">
          <mxGeometry relative="1" as="geometry" />
        </mxCell>
        <mxCell id="L0MEZrE-DLsut9pZWQ_O-83" value="获取范围内人员" style="rounded=0;whiteSpace=wrap;html=1;fillColor=#dae8fc;strokeColor=#6c8ebf;" parent="1" vertex="1">
          <mxGeometry x="2220" y="2605" width="100" height="40" as="geometry" />
        </mxCell>
        <mxCell id="L0MEZrE-DLsut9pZWQ_O-84" value="返回人员列表" style="rounded=0;whiteSpace=wrap;html=1;fontColor=#000000;" parent="1" vertex="1">
          <mxGeometry x="2220" y="2695" width="100" height="40" as="geometry" />
        </mxCell>
        <mxCell id="L0MEZrE-DLsut9pZWQ_O-99" value="" style="edgeStyle=orthogonalEdgeStyle;rounded=0;orthogonalLoop=1;jettySize=auto;html=1;labelBackgroundColor=#FFFFFF;" parent="1" source="L0MEZrE-DLsut9pZWQ_O-91" target="L0MEZrE-DLsut9pZWQ_O-92" edge="1">
          <mxGeometry relative="1" as="geometry" />
        </mxCell>
        <mxCell id="L0MEZrE-DLsut9pZWQ_O-91" value="取消面试安排" style="rounded=0;whiteSpace=wrap;html=1;fontColor=#000000;" parent="1" vertex="1">
          <mxGeometry x="1720" y="3020" width="100" height="40" as="geometry" />
        </mxCell>
        <mxCell id="L0MEZrE-DLsut9pZWQ_O-100" value="" style="edgeStyle=orthogonalEdgeStyle;rounded=0;orthogonalLoop=1;jettySize=auto;html=1;labelBackgroundColor=#FFFFFF;" parent="1" source="L0MEZrE-DLsut9pZWQ_O-92" target="L0MEZrE-DLsut9pZWQ_O-93" edge="1">
          <mxGeometry relative="1" as="geometry" />
        </mxCell>
        <mxCell id="L0MEZrE-DLsut9pZWQ_O-92" value="获取安排状态" style="rounded=0;whiteSpace=wrap;html=1;fontColor=#000000;" parent="1" vertex="1">
          <mxGeometry x="1720" y="3100" width="100" height="40" as="geometry" />
        </mxCell>
        <mxCell id="L0MEZrE-DLsut9pZWQ_O-101" value="是" style="edgeStyle=orthogonalEdgeStyle;rounded=0;orthogonalLoop=1;jettySize=auto;html=1;labelBackgroundColor=#FFFFFF;" parent="1" source="L0MEZrE-DLsut9pZWQ_O-93" target="L0MEZrE-DLsut9pZWQ_O-94" edge="1">
          <mxGeometry relative="1" as="geometry" />
        </mxCell>
        <mxCell id="L0MEZrE-DLsut9pZWQ_O-102" style="edgeStyle=orthogonalEdgeStyle;rounded=0;orthogonalLoop=1;jettySize=auto;html=1;labelBackgroundColor=#FFFFFF;" parent="1" source="L0MEZrE-DLsut9pZWQ_O-93" target="L0MEZrE-DLsut9pZWQ_O-96" edge="1">
          <mxGeometry relative="1" as="geometry" />
        </mxCell>
        <mxCell id="L0MEZrE-DLsut9pZWQ_O-103" value="否" style="edgeLabel;html=1;align=center;verticalAlign=middle;resizable=0;points=[];" parent="L0MEZrE-DLsut9pZWQ_O-102" vertex="1" connectable="0">
          <mxGeometry x="0.0164" y="1" relative="1" as="geometry">
            <mxPoint as="offset" />
          </mxGeometry>
        </mxCell>
        <mxCell id="L0MEZrE-DLsut9pZWQ_O-93" value="未完成" style="rhombus;whiteSpace=wrap;html=1;" parent="1" vertex="1">
          <mxGeometry x="1735" y="3180" width="70" height="70" as="geometry" />
        </mxCell>
        <mxCell id="L0MEZrE-DLsut9pZWQ_O-104" value="" style="edgeStyle=orthogonalEdgeStyle;rounded=0;orthogonalLoop=1;jettySize=auto;html=1;labelBackgroundColor=#FFFFFF;" parent="1" source="L0MEZrE-DLsut9pZWQ_O-94" target="L0MEZrE-DLsut9pZWQ_O-95" edge="1">
          <mxGeometry relative="1" as="geometry" />
        </mxCell>
        <mxCell id="L0MEZrE-DLsut9pZWQ_O-94" value="未完成安排集合" style="rounded=0;whiteSpace=wrap;html=1;fontColor=#000000;" parent="1" vertex="1">
          <mxGeometry x="1720" y="3290" width="100" height="40" as="geometry" />
        </mxCell>
        <mxCell id="L0MEZrE-DLsut9pZWQ_O-106" value="" style="edgeStyle=orthogonalEdgeStyle;rounded=0;orthogonalLoop=1;jettySize=auto;html=1;labelBackgroundColor=#FFFFFF;" parent="1" source="L0MEZrE-DLsut9pZWQ_O-95" target="L0MEZrE-DLsut9pZWQ_O-98" edge="1">
          <mxGeometry relative="1" as="geometry" />
        </mxCell>
        <mxCell id="L0MEZrE-DLsut9pZWQ_O-95" value="更新安排状态" style="rounded=0;whiteSpace=wrap;html=1;fontColor=#000000;" parent="1" vertex="1">
          <mxGeometry x="1720" y="3370" width="100" height="40" as="geometry" />
        </mxCell>
        <mxCell id="L0MEZrE-DLsut9pZWQ_O-105" value="" style="edgeStyle=orthogonalEdgeStyle;rounded=0;orthogonalLoop=1;jettySize=auto;html=1;labelBackgroundColor=#FFFFFF;" parent="1" source="L0MEZrE-DLsut9pZWQ_O-96" target="L0MEZrE-DLsut9pZWQ_O-97" edge="1">
          <mxGeometry relative="1" as="geometry" />
        </mxCell>
        <mxCell id="L0MEZrE-DLsut9pZWQ_O-96" value="已完成、已取消&lt;br&gt;集合" style="rounded=0;whiteSpace=wrap;html=1;fontColor=#000000;" parent="1" vertex="1">
          <mxGeometry x="1900" y="3290" width="100" height="40" as="geometry" />
        </mxCell>
        <mxCell id="L0MEZrE-DLsut9pZWQ_O-107" style="edgeStyle=orthogonalEdgeStyle;rounded=0;orthogonalLoop=1;jettySize=auto;html=1;entryX=1;entryY=0.5;entryDx=0;entryDy=0;labelBackgroundColor=#FFFFFF;" parent="1" source="L0MEZrE-DLsut9pZWQ_O-97" target="L0MEZrE-DLsut9pZWQ_O-98" edge="1">
          <mxGeometry relative="1" as="geometry" />
        </mxCell>
        <mxCell id="L0MEZrE-DLsut9pZWQ_O-97" value="返回错误安排Ids集合" style="rounded=0;whiteSpace=wrap;html=1;fontColor=#000000;" parent="1" vertex="1">
          <mxGeometry x="1900" y="3370" width="100" height="40" as="geometry" />
        </mxCell>
        <mxCell id="L0MEZrE-DLsut9pZWQ_O-98" value="返回取消结果" style="rounded=0;whiteSpace=wrap;html=1;fontColor=#000000;" parent="1" vertex="1">
          <mxGeometry x="1720" y="3460" width="100" height="40" as="geometry" />
        </mxCell>
        <mxCell id="L0MEZrE-DLsut9pZWQ_O-122" value="" style="edgeStyle=orthogonalEdgeStyle;rounded=0;orthogonalLoop=1;jettySize=auto;html=1;labelBackgroundColor=#FFFFFF;" parent="1" source="L0MEZrE-DLsut9pZWQ_O-108" target="L0MEZrE-DLsut9pZWQ_O-109" edge="1">
          <mxGeometry relative="1" as="geometry" />
        </mxCell>
        <mxCell id="L0MEZrE-DLsut9pZWQ_O-108" value="共享面试评价" style="rounded=0;whiteSpace=wrap;html=1;fontColor=#000000;" parent="1" vertex="1">
          <mxGeometry x="2230" y="3040" width="100" height="40" as="geometry" />
        </mxCell>
        <mxCell id="L0MEZrE-DLsut9pZWQ_O-123" value="是" style="edgeStyle=orthogonalEdgeStyle;rounded=0;orthogonalLoop=1;jettySize=auto;html=1;labelBackgroundColor=#FFFFFF;" parent="1" source="L0MEZrE-DLsut9pZWQ_O-109" target="L0MEZrE-DLsut9pZWQ_O-114" edge="1">
          <mxGeometry relative="1" as="geometry" />
        </mxCell>
        <mxCell id="L0MEZrE-DLsut9pZWQ_O-124" value="否" style="edgeStyle=orthogonalEdgeStyle;rounded=0;orthogonalLoop=1;jettySize=auto;html=1;labelBackgroundColor=#FFFFFF;" parent="1" target="L0MEZrE-DLsut9pZWQ_O-111" edge="1">
          <mxGeometry relative="1" as="geometry">
            <mxPoint x="2280" y="3165" as="sourcePoint" />
          </mxGeometry>
        </mxCell>
        <mxCell id="L0MEZrE-DLsut9pZWQ_O-109" value="应聘者&lt;br&gt;拉黑删除" style="rhombus;whiteSpace=wrap;html=1;" parent="1" vertex="1">
          <mxGeometry x="2245" y="3110" width="70" height="70" as="geometry" />
        </mxCell>
        <mxCell id="L0MEZrE-DLsut9pZWQ_O-125" value="" style="edgeStyle=orthogonalEdgeStyle;rounded=0;orthogonalLoop=1;jettySize=auto;html=1;labelBackgroundColor=#FFFFFF;" parent="1" source="L0MEZrE-DLsut9pZWQ_O-111" target="L0MEZrE-DLsut9pZWQ_O-113" edge="1">
          <mxGeometry relative="1" as="geometry">
            <Array as="points">
              <mxPoint x="2280" y="3295" />
              <mxPoint x="2280" y="3295" />
            </Array>
          </mxGeometry>
        </mxCell>
        <mxCell id="L0MEZrE-DLsut9pZWQ_O-126" value="是" style="edgeStyle=orthogonalEdgeStyle;rounded=0;orthogonalLoop=1;jettySize=auto;html=1;labelBackgroundColor=#FFFFFF;" parent="1" source="L0MEZrE-DLsut9pZWQ_O-111" target="L0MEZrE-DLsut9pZWQ_O-117" edge="1">
          <mxGeometry relative="1" as="geometry">
            <Array as="points">
              <mxPoint x="2360" y="3240" />
              <mxPoint x="2360" y="3240" />
            </Array>
          </mxGeometry>
        </mxCell>
        <mxCell id="L0MEZrE-DLsut9pZWQ_O-111" value="被共享申请ids删除" style="rhombus;whiteSpace=wrap;html=1;" parent="1" vertex="1">
          <mxGeometry x="2245" y="3205" width="70" height="70" as="geometry" />
        </mxCell>
        <mxCell id="L0MEZrE-DLsut9pZWQ_O-128" value="是" style="edgeStyle=orthogonalEdgeStyle;rounded=0;orthogonalLoop=1;jettySize=auto;html=1;labelBackgroundColor=#FFFFFF;" parent="1" source="L0MEZrE-DLsut9pZWQ_O-112" target="L0MEZrE-DLsut9pZWQ_O-119" edge="1">
          <mxGeometry relative="1" as="geometry" />
        </mxCell>
        <mxCell id="L0MEZrE-DLsut9pZWQ_O-130" value="" style="edgeStyle=orthogonalEdgeStyle;rounded=0;orthogonalLoop=1;jettySize=auto;html=1;labelBackgroundColor=#FFFFFF;" parent="1" source="L0MEZrE-DLsut9pZWQ_O-112" target="L0MEZrE-DLsut9pZWQ_O-120" edge="1">
          <mxGeometry relative="1" as="geometry" />
        </mxCell>
        <mxCell id="L0MEZrE-DLsut9pZWQ_O-112" value="共享被共享应聘者不一致" style="rhombus;whiteSpace=wrap;html=1;" parent="1" vertex="1">
          <mxGeometry x="2245" y="3400" width="70" height="70" as="geometry" />
        </mxCell>
        <mxCell id="L0MEZrE-DLsut9pZWQ_O-127" value="是" style="edgeStyle=orthogonalEdgeStyle;rounded=0;orthogonalLoop=1;jettySize=auto;html=1;labelBackgroundColor=#FFFFFF;" parent="1" source="L0MEZrE-DLsut9pZWQ_O-113" target="L0MEZrE-DLsut9pZWQ_O-118" edge="1">
          <mxGeometry relative="1" as="geometry" />
        </mxCell>
        <mxCell id="L0MEZrE-DLsut9pZWQ_O-129" value="" style="edgeStyle=orthogonalEdgeStyle;rounded=0;orthogonalLoop=1;jettySize=auto;html=1;labelBackgroundColor=#FFFFFF;" parent="1" source="L0MEZrE-DLsut9pZWQ_O-113" target="L0MEZrE-DLsut9pZWQ_O-112" edge="1">
          <mxGeometry relative="1" as="geometry" />
        </mxCell>
        <mxCell id="L0MEZrE-DLsut9pZWQ_O-113" value="共享被共享已关联" style="rhombus;whiteSpace=wrap;html=1;" parent="1" vertex="1">
          <mxGeometry x="2245" y="3300" width="70" height="70" as="geometry" />
        </mxCell>
        <mxCell id="L0MEZrE-DLsut9pZWQ_O-114" value="返回拉黑删除提示" style="rounded=0;whiteSpace=wrap;html=1;fontColor=#000000;" parent="1" vertex="1">
          <mxGeometry x="2380" y="3125" width="100" height="40" as="geometry" />
        </mxCell>
        <mxCell id="L0MEZrE-DLsut9pZWQ_O-134" style="edgeStyle=orthogonalEdgeStyle;rounded=0;orthogonalLoop=1;jettySize=auto;html=1;entryX=1;entryY=0.5;entryDx=0;entryDy=0;labelBackgroundColor=#FFFFFF;" parent="1" source="L0MEZrE-DLsut9pZWQ_O-117" target="L0MEZrE-DLsut9pZWQ_O-121" edge="1">
          <mxGeometry relative="1" as="geometry">
            <Array as="points">
              <mxPoint x="2530" y="3240" />
              <mxPoint x="2530" y="3610" />
            </Array>
          </mxGeometry>
        </mxCell>
        <mxCell id="L0MEZrE-DLsut9pZWQ_O-117" value="删除申请Ids" style="rounded=0;whiteSpace=wrap;html=1;fontColor=#000000;" parent="1" vertex="1">
          <mxGeometry x="2380" y="3220" width="100" height="40" as="geometry" />
        </mxCell>
        <mxCell id="L0MEZrE-DLsut9pZWQ_O-133" style="edgeStyle=orthogonalEdgeStyle;rounded=0;orthogonalLoop=1;jettySize=auto;html=1;entryX=1;entryY=0.5;entryDx=0;entryDy=0;labelBackgroundColor=#FFFFFF;" parent="1" source="L0MEZrE-DLsut9pZWQ_O-118" target="L0MEZrE-DLsut9pZWQ_O-121" edge="1">
          <mxGeometry relative="1" as="geometry">
            <Array as="points">
              <mxPoint x="2530" y="3335" />
              <mxPoint x="2530" y="3610" />
            </Array>
          </mxGeometry>
        </mxCell>
        <mxCell id="L0MEZrE-DLsut9pZWQ_O-118" value="已关联申请Ids" style="rounded=0;whiteSpace=wrap;html=1;fontColor=#000000;" parent="1" vertex="1">
          <mxGeometry x="2380" y="3315" width="100" height="40" as="geometry" />
        </mxCell>
        <mxCell id="L0MEZrE-DLsut9pZWQ_O-132" style="edgeStyle=orthogonalEdgeStyle;rounded=0;orthogonalLoop=1;jettySize=auto;html=1;entryX=1;entryY=0.5;entryDx=0;entryDy=0;labelBackgroundColor=#FFFFFF;" parent="1" source="L0MEZrE-DLsut9pZWQ_O-119" target="L0MEZrE-DLsut9pZWQ_O-121" edge="1">
          <mxGeometry relative="1" as="geometry">
            <Array as="points">
              <mxPoint x="2530" y="3435" />
              <mxPoint x="2530" y="3610" />
            </Array>
          </mxGeometry>
        </mxCell>
        <mxCell id="L0MEZrE-DLsut9pZWQ_O-119" value="应聘者不一致&lt;br&gt;申请Ids" style="rounded=0;whiteSpace=wrap;html=1;fontColor=#000000;" parent="1" vertex="1">
          <mxGeometry x="2380" y="3415" width="100" height="40" as="geometry" />
        </mxCell>
        <mxCell id="L0MEZrE-DLsut9pZWQ_O-131" value="" style="edgeStyle=orthogonalEdgeStyle;rounded=0;orthogonalLoop=1;jettySize=auto;html=1;labelBackgroundColor=#FFFFFF;" parent="1" source="L0MEZrE-DLsut9pZWQ_O-120" target="L0MEZrE-DLsut9pZWQ_O-121" edge="1">
          <mxGeometry relative="1" as="geometry" />
        </mxCell>
        <mxCell id="L0MEZrE-DLsut9pZWQ_O-120" value="共享成功申请Ids" style="rounded=0;whiteSpace=wrap;html=1;fontColor=#000000;" parent="1" vertex="1">
          <mxGeometry x="2230" y="3510" width="100" height="40" as="geometry" />
        </mxCell>
        <mxCell id="L0MEZrE-DLsut9pZWQ_O-121" value="返回共享结果" style="rounded=0;whiteSpace=wrap;html=1;fontColor=#000000;" parent="1" vertex="1">
          <mxGeometry x="2230" y="3590" width="100" height="40" as="geometry" />
        </mxCell>
        <mxCell id="qomqAFSf7AB_BySmps6i-7" value="" style="edgeStyle=orthogonalEdgeStyle;rounded=0;orthogonalLoop=1;jettySize=auto;html=1;" edge="1" parent="1" source="qomqAFSf7AB_BySmps6i-1" target="qomqAFSf7AB_BySmps6i-2">
          <mxGeometry relative="1" as="geometry" />
        </mxCell>
        <mxCell id="qomqAFSf7AB_BySmps6i-1" value="安排面试&lt;br&gt;自定义视频工具" style="rounded=0;whiteSpace=wrap;html=1;fontColor=#000000;" vertex="1" parent="1">
          <mxGeometry x="325" y="3130" width="100" height="40" as="geometry" />
        </mxCell>
        <mxCell id="qomqAFSf7AB_BySmps6i-8" value="" style="edgeStyle=orthogonalEdgeStyle;rounded=0;orthogonalLoop=1;jettySize=auto;html=1;" edge="1" parent="1" source="qomqAFSf7AB_BySmps6i-2" target="qomqAFSf7AB_BySmps6i-4">
          <mxGeometry relative="1" as="geometry" />
        </mxCell>
        <mxCell id="qomqAFSf7AB_BySmps6i-2" value="构造面试视频会议" style="rounded=0;whiteSpace=wrap;html=1;fillColor=#dae8fc;strokeColor=#6c8ebf;" vertex="1" parent="1">
          <mxGeometry x="325" y="3220" width="100" height="40" as="geometry" />
        </mxCell>
        <mxCell id="qomqAFSf7AB_BySmps6i-9" value="" style="edgeStyle=orthogonalEdgeStyle;rounded=0;orthogonalLoop=1;jettySize=auto;html=1;" edge="1" parent="1" source="qomqAFSf7AB_BySmps6i-4" target="qomqAFSf7AB_BySmps6i-5">
          <mxGeometry relative="1" as="geometry" />
        </mxCell>
        <mxCell id="qomqAFSf7AB_BySmps6i-4" value="日程赋值VideoRoomId" style="rounded=0;whiteSpace=wrap;html=1;fontColor=#000000;" vertex="1" parent="1">
          <mxGeometry x="325" y="3300" width="100" height="40" as="geometry" />
        </mxCell>
        <mxCell id="qomqAFSf7AB_BySmps6i-10" value="" style="edgeStyle=orthogonalEdgeStyle;rounded=0;orthogonalLoop=1;jettySize=auto;html=1;" edge="1" parent="1" source="qomqAFSf7AB_BySmps6i-5" target="qomqAFSf7AB_BySmps6i-6">
          <mxGeometry relative="1" as="geometry" />
        </mxCell>
        <mxCell id="qomqAFSf7AB_BySmps6i-5" value="保存面试视频会议" style="rounded=0;whiteSpace=wrap;html=1;fontColor=#000000;" vertex="1" parent="1">
          <mxGeometry x="325" y="3390" width="100" height="40" as="geometry" />
        </mxCell>
        <mxCell id="qomqAFSf7AB_BySmps6i-6" value="保存安排信息" style="rounded=0;whiteSpace=wrap;html=1;fontColor=#000000;" vertex="1" parent="1">
          <mxGeometry x="325" y="3470" width="100" height="40" as="geometry" />
        </mxCell>
        <mxCell id="qomqAFSf7AB_BySmps6i-11" value="日程赋值VideoRoomId" style="rounded=0;whiteSpace=wrap;html=1;fillColor=#dae8fc;strokeColor=#6c8ebf;" vertex="1" parent="1">
          <mxGeometry x="325" y="3300" width="100" height="40" as="geometry" />
        </mxCell>
        <mxCell id="qomqAFSf7AB_BySmps6i-12" value="字段对应关系&lt;br&gt;VideoMeetingScene：其他&lt;br&gt;VideoRoomUrl：视频链接&lt;br&gt;VideoRoomCode：会议号&lt;br&gt;VideoRoomPassword：入会密码" style="text;html=1;strokeColor=#6c8ebf;fillColor=#dae8fc;align=center;verticalAlign=middle;whiteSpace=wrap;rounded=0;dashed=1;" vertex="1" parent="1">
          <mxGeometry x="500" y="3192.5" width="180" height="95" as="geometry" />
        </mxCell>
        <mxCell id="qomqAFSf7AB_BySmps6i-21" value="" style="edgeStyle=orthogonalEdgeStyle;rounded=0;orthogonalLoop=1;jettySize=auto;html=1;" edge="1" parent="1" source="qomqAFSf7AB_BySmps6i-14" target="qomqAFSf7AB_BySmps6i-15">
          <mxGeometry relative="1" as="geometry" />
        </mxCell>
        <mxCell id="qomqAFSf7AB_BySmps6i-14" value="获取腾讯会议&lt;br&gt;录屏地址" style="rounded=0;whiteSpace=wrap;html=1;fontColor=#000000;" vertex="1" parent="1">
          <mxGeometry x="980" y="3165" width="100" height="40" as="geometry" />
        </mxCell>
        <mxCell id="qomqAFSf7AB_BySmps6i-22" value="" style="edgeStyle=orthogonalEdgeStyle;rounded=0;orthogonalLoop=1;jettySize=auto;html=1;" edge="1" parent="1" source="qomqAFSf7AB_BySmps6i-15" target="qomqAFSf7AB_BySmps6i-16">
          <mxGeometry relative="1" as="geometry" />
        </mxCell>
        <mxCell id="qomqAFSf7AB_BySmps6i-15" value="定时任务消息" style="rounded=0;whiteSpace=wrap;html=1;fontColor=#000000;" vertex="1" parent="1">
          <mxGeometry x="980" y="3250" width="100" height="40" as="geometry" />
        </mxCell>
        <mxCell id="qomqAFSf7AB_BySmps6i-28" value="" style="edgeStyle=orthogonalEdgeStyle;rounded=0;orthogonalLoop=1;jettySize=auto;html=1;" edge="1" parent="1" source="qomqAFSf7AB_BySmps6i-16" target="qomqAFSf7AB_BySmps6i-27">
          <mxGeometry relative="1" as="geometry" />
        </mxCell>
        <mxCell id="qomqAFSf7AB_BySmps6i-16" value="取startTime在24h内的日程" style="rounded=0;whiteSpace=wrap;html=1;fillColor=#dae8fc;strokeColor=#6c8ebf;" vertex="1" parent="1">
          <mxGeometry x="980" y="3330" width="100" height="40" as="geometry" />
        </mxCell>
        <mxCell id="qomqAFSf7AB_BySmps6i-31" value="" style="edgeStyle=orthogonalEdgeStyle;rounded=0;orthogonalLoop=1;jettySize=auto;html=1;" edge="1" parent="1" source="qomqAFSf7AB_BySmps6i-17" target="qomqAFSf7AB_BySmps6i-18">
          <mxGeometry relative="1" as="geometry" />
        </mxCell>
        <mxCell id="qomqAFSf7AB_BySmps6i-17" value="调腾讯会议接口&lt;br&gt;获取录屏文件" style="rounded=0;whiteSpace=wrap;html=1;fillColor=#dae8fc;strokeColor=#6c8ebf;" vertex="1" parent="1">
          <mxGeometry x="980" y="3490" width="100" height="40" as="geometry" />
        </mxCell>
        <mxCell id="qomqAFSf7AB_BySmps6i-18" value="录屏文件地址&lt;br&gt;写回日程" style="rounded=0;whiteSpace=wrap;html=1;fillColor=#dae8fc;strokeColor=#6c8ebf;" vertex="1" parent="1">
          <mxGeometry x="980" y="3565" width="100" height="40" as="geometry" />
        </mxCell>
        <mxCell id="qomqAFSf7AB_BySmps6i-19" style="edgeStyle=orthogonalEdgeStyle;rounded=0;orthogonalLoop=1;jettySize=auto;html=1;exitX=0.5;exitY=1;exitDx=0;exitDy=0;" edge="1" parent="1" source="qomqAFSf7AB_BySmps6i-18" target="qomqAFSf7AB_BySmps6i-18">
          <mxGeometry relative="1" as="geometry" />
        </mxCell>
        <mxCell id="qomqAFSf7AB_BySmps6i-30" value="" style="edgeStyle=orthogonalEdgeStyle;rounded=0;orthogonalLoop=1;jettySize=auto;html=1;" edge="1" parent="1" target="qomqAFSf7AB_BySmps6i-17">
          <mxGeometry relative="1" as="geometry">
            <mxPoint x="1030" y="3440" as="sourcePoint" />
          </mxGeometry>
        </mxCell>
        <mxCell id="qomqAFSf7AB_BySmps6i-27" value="取腾讯会议Id" style="rounded=0;whiteSpace=wrap;html=1;fillColor=#dae8fc;strokeColor=#6c8ebf;" vertex="1" parent="1">
          <mxGeometry x="980" y="3410" width="100" height="40" as="geometry" />
        </mxCell>
        <mxCell id="qomqAFSf7AB_BySmps6i-38" value="" style="edgeStyle=orthogonalEdgeStyle;rounded=0;orthogonalLoop=1;jettySize=auto;html=1;" edge="1" parent="1" source="qomqAFSf7AB_BySmps6i-32" target="qomqAFSf7AB_BySmps6i-33">
          <mxGeometry relative="1" as="geometry" />
        </mxCell>
        <mxCell id="qomqAFSf7AB_BySmps6i-32" value="授权主持人" style="rounded=0;whiteSpace=wrap;html=1;fontColor=#000000;" vertex="1" parent="1">
          <mxGeometry x="1300" y="3170" width="100" height="40" as="geometry" />
        </mxCell>
        <mxCell id="qomqAFSf7AB_BySmps6i-39" value="" style="edgeStyle=orthogonalEdgeStyle;rounded=0;orthogonalLoop=1;jettySize=auto;html=1;" edge="1" parent="1" source="qomqAFSf7AB_BySmps6i-33" target="qomqAFSf7AB_BySmps6i-34">
          <mxGeometry relative="1" as="geometry" />
        </mxCell>
        <mxCell id="qomqAFSf7AB_BySmps6i-33" value="腾讯会议后台&lt;br&gt;添加消息通知&lt;br&gt;事件：用户入会" style="rounded=0;whiteSpace=wrap;html=1;fontColor=#000000;" vertex="1" parent="1">
          <mxGeometry x="1300" y="3250" width="100" height="50" as="geometry" />
        </mxCell>
        <mxCell id="qomqAFSf7AB_BySmps6i-40" value="" style="edgeStyle=orthogonalEdgeStyle;rounded=0;orthogonalLoop=1;jettySize=auto;html=1;" edge="1" parent="1" source="qomqAFSf7AB_BySmps6i-34" target="qomqAFSf7AB_BySmps6i-35">
          <mxGeometry relative="1" as="geometry" />
        </mxCell>
        <mxCell id="qomqAFSf7AB_BySmps6i-34" value="用户入会后腾讯&lt;br&gt;回调相应接口" style="rounded=0;whiteSpace=wrap;html=1;fontColor=#000000;" vertex="1" parent="1">
          <mxGeometry x="1300" y="3350" width="100" height="40" as="geometry" />
        </mxCell>
        <mxCell id="qomqAFSf7AB_BySmps6i-41" value="" style="edgeStyle=orthogonalEdgeStyle;rounded=0;orthogonalLoop=1;jettySize=auto;html=1;" edge="1" parent="1" source="qomqAFSf7AB_BySmps6i-35" target="qomqAFSf7AB_BySmps6i-37">
          <mxGeometry relative="1" as="geometry" />
        </mxCell>
        <mxCell id="qomqAFSf7AB_BySmps6i-35" value="获取到用户信息&lt;br&gt;openId、uuId、meetingId" style="rounded=0;whiteSpace=wrap;html=1;fillColor=#dae8fc;strokeColor=#6c8ebf;" vertex="1" parent="1">
          <mxGeometry x="1300" y="3430" width="100" height="50" as="geometry" />
        </mxCell>
        <mxCell id="qomqAFSf7AB_BySmps6i-37" value="设置联席主持人&lt;br&gt;腾讯会议接口" style="rounded=0;whiteSpace=wrap;html=1;fillColor=#dae8fc;strokeColor=#6c8ebf;" vertex="1" parent="1">
          <mxGeometry x="1300" y="3525" width="100" height="40" as="geometry" />
        </mxCell>
        <mxCell id="qomqAFSf7AB_BySmps6i-42" value="腾讯会议后台&lt;br&gt;添加消息通知&lt;br&gt;事件：用户入会" style="rounded=0;whiteSpace=wrap;html=1;fillColor=#dae8fc;strokeColor=#6c8ebf;" vertex="1" parent="1">
          <mxGeometry x="1300" y="3250" width="100" height="50" as="geometry" />
        </mxCell>
        <mxCell id="qomqAFSf7AB_BySmps6i-53" value="1：n" style="edgeStyle=orthogonalEdgeStyle;rounded=0;orthogonalLoop=1;jettySize=auto;html=1;" edge="1" parent="1" source="qomqAFSf7AB_BySmps6i-43" target="qomqAFSf7AB_BySmps6i-47">
          <mxGeometry relative="1" as="geometry" />
        </mxCell>
        <mxCell id="qomqAFSf7AB_BySmps6i-56" value="1：n" style="edgeStyle=orthogonalEdgeStyle;rounded=0;orthogonalLoop=1;jettySize=auto;html=1;entryX=1;entryY=0.25;entryDx=0;entryDy=0;" edge="1" parent="1" source="qomqAFSf7AB_BySmps6i-43" target="qomqAFSf7AB_BySmps6i-48">
          <mxGeometry relative="1" as="geometry">
            <Array as="points">
              <mxPoint x="1840" y="1270" />
              <mxPoint x="1840" y="1565" />
            </Array>
          </mxGeometry>
        </mxCell>
        <mxCell id="qomqAFSf7AB_BySmps6i-43" value="&lt;div style=&quot;box-sizing: border-box ; width: 100% ; background: #e4e4e4 ; padding: 2px&quot;&gt;面试安排&lt;/div&gt;&lt;table style=&quot;width: 100% ; font-size: 1em&quot; cellpadding=&quot;2&quot; cellspacing=&quot;0&quot;&gt;&lt;tbody&gt;&lt;tr&gt;&lt;td&gt;PK&lt;/td&gt;&lt;td&gt;&lt;span style=&quot;color: rgb(80 , 80 , 80) ; font-family: &amp;#34;arial&amp;#34; , &amp;#34;simsun&amp;#34; ; background-color: rgb(255 , 255 , 255)&quot;&gt;ArrangementId&lt;/span&gt;&lt;br&gt;&lt;/td&gt;&lt;/tr&gt;&lt;tr&gt;&lt;td&gt;&lt;br&gt;&lt;/td&gt;&lt;td&gt;Status -状态&lt;/td&gt;&lt;/tr&gt;&lt;/tbody&gt;&lt;/table&gt;" style="verticalAlign=top;align=left;overflow=fill;html=1;" vertex="1" parent="1">
          <mxGeometry x="1590" y="1220" width="180" height="100" as="geometry" />
        </mxCell>
        <mxCell id="qomqAFSf7AB_BySmps6i-58" value="1：n" style="edgeStyle=orthogonalEdgeStyle;rounded=0;orthogonalLoop=1;jettySize=auto;html=1;" edge="1" parent="1" source="qomqAFSf7AB_BySmps6i-44" target="qomqAFSf7AB_BySmps6i-45">
          <mxGeometry relative="1" as="geometry" />
        </mxCell>
        <mxCell id="qomqAFSf7AB_BySmps6i-44" value="&lt;div style=&quot;box-sizing: border-box ; width: 100% ; background: #e4e4e4 ; padding: 2px&quot;&gt;个人信息&lt;/div&gt;&lt;table style=&quot;width: 100% ; font-size: 1em&quot; cellpadding=&quot;2&quot; cellspacing=&quot;0&quot;&gt;&lt;tbody&gt;&lt;tr&gt;&lt;td&gt;PK&lt;/td&gt;&lt;td&gt;&lt;font color=&quot;#505050&quot; face=&quot;arial, simsun&quot;&gt;&lt;span style=&quot;background-color: rgb(255 , 255 , 255)&quot;&gt;ApplicantId&lt;/span&gt;&lt;/font&gt;&lt;/td&gt;&lt;/tr&gt;&lt;tr&gt;&lt;td&gt;&lt;br&gt;&lt;/td&gt;&lt;td&gt;&lt;span style=&quot;color: rgb(80 , 80 , 80) ; font-family: &amp;#34;arial&amp;#34; , &amp;#34;simsun&amp;#34; ; background-color: rgb(243 , 243 , 243)&quot;&gt;IsBlack&lt;br&gt;&lt;/span&gt;StdIsDeleted&lt;br&gt;&lt;/td&gt;&lt;/tr&gt;&lt;/tbody&gt;&lt;/table&gt;" style="verticalAlign=top;align=left;overflow=fill;html=1;" vertex="1" parent="1">
          <mxGeometry x="1905" y="1200" width="180" height="100" as="geometry" />
        </mxCell>
        <mxCell id="qomqAFSf7AB_BySmps6i-60" style="edgeStyle=orthogonalEdgeStyle;rounded=0;orthogonalLoop=1;jettySize=auto;html=1;entryX=0.5;entryY=0;entryDx=0;entryDy=0;" edge="1" parent="1" source="qomqAFSf7AB_BySmps6i-45" target="qomqAFSf7AB_BySmps6i-50">
          <mxGeometry relative="1" as="geometry">
            <mxPoint x="1500" y="1160" as="targetPoint" />
            <Array as="points">
              <mxPoint x="2140" y="1460" />
              <mxPoint x="2140" y="1150" />
              <mxPoint x="1380" y="1150" />
            </Array>
          </mxGeometry>
        </mxCell>
        <mxCell id="qomqAFSf7AB_BySmps6i-61" value="1：n" style="edgeLabel;html=1;align=center;verticalAlign=middle;resizable=0;points=[];" vertex="1" connectable="0" parent="qomqAFSf7AB_BySmps6i-60">
          <mxGeometry x="0.0295" y="1" relative="1" as="geometry">
            <mxPoint as="offset" />
          </mxGeometry>
        </mxCell>
        <mxCell id="qomqAFSf7AB_BySmps6i-45" value="&lt;div style=&quot;box-sizing: border-box ; width: 100% ; background: #e4e4e4 ; padding: 2px&quot;&gt;申请&lt;/div&gt;&lt;table style=&quot;width: 100% ; font-size: 1em&quot; cellpadding=&quot;2&quot; cellspacing=&quot;0&quot;&gt;&lt;tbody&gt;&lt;tr&gt;&lt;td&gt;PK&lt;/td&gt;&lt;td&gt;&lt;font color=&quot;#505050&quot; face=&quot;arial, simsun&quot;&gt;&lt;span style=&quot;background-color: rgb(255 , 255 , 255)&quot;&gt;ApplyId&lt;/span&gt;&lt;/font&gt;&lt;/td&gt;&lt;/tr&gt;&lt;tr&gt;&lt;td&gt;&lt;br&gt;&lt;/td&gt;&lt;td&gt;ApplicantId&lt;br&gt;StdIsDeleted&lt;br&gt;&lt;/td&gt;&lt;/tr&gt;&lt;/tbody&gt;&lt;/table&gt;" style="verticalAlign=top;align=left;overflow=fill;html=1;" vertex="1" parent="1">
          <mxGeometry x="1905" y="1410" width="180" height="100" as="geometry" />
        </mxCell>
        <mxCell id="qomqAFSf7AB_BySmps6i-52" value="1：n" style="edgeStyle=orthogonalEdgeStyle;rounded=0;orthogonalLoop=1;jettySize=auto;html=1;" edge="1" parent="1" source="qomqAFSf7AB_BySmps6i-47" target="qomqAFSf7AB_BySmps6i-50">
          <mxGeometry relative="1" as="geometry" />
        </mxCell>
        <mxCell id="qomqAFSf7AB_BySmps6i-54" value="1：n" style="edgeStyle=orthogonalEdgeStyle;rounded=0;orthogonalLoop=1;jettySize=auto;html=1;" edge="1" parent="1" source="qomqAFSf7AB_BySmps6i-47" target="qomqAFSf7AB_BySmps6i-48">
          <mxGeometry relative="1" as="geometry" />
        </mxCell>
        <mxCell id="qomqAFSf7AB_BySmps6i-47" value="&lt;div style=&quot;box-sizing: border-box ; width: 100% ; background: #e4e4e4 ; padding: 2px&quot;&gt;面试日程&lt;/div&gt;&lt;table style=&quot;width: 100% ; font-size: 1em&quot; cellpadding=&quot;2&quot; cellspacing=&quot;0&quot;&gt;&lt;tbody&gt;&lt;tr&gt;&lt;td&gt;PK&lt;/td&gt;&lt;td&gt;ScheduleId&lt;/td&gt;&lt;/tr&gt;&lt;tr&gt;&lt;td&gt;&lt;br&gt;&lt;/td&gt;&lt;td&gt;ArrangementId&lt;/td&gt;&lt;/tr&gt;&lt;/tbody&gt;&lt;/table&gt;" style="verticalAlign=top;align=left;overflow=fill;html=1;" vertex="1" parent="1">
          <mxGeometry x="1590" y="1390" width="180" height="100" as="geometry" />
        </mxCell>
        <mxCell id="qomqAFSf7AB_BySmps6i-49" style="edgeStyle=orthogonalEdgeStyle;rounded=0;orthogonalLoop=1;jettySize=auto;html=1;" edge="1" parent="1" source="qomqAFSf7AB_BySmps6i-48" target="qomqAFSf7AB_BySmps6i-45">
          <mxGeometry relative="1" as="geometry" />
        </mxCell>
        <mxCell id="qomqAFSf7AB_BySmps6i-59" value="1:1" style="edgeLabel;html=1;align=center;verticalAlign=middle;resizable=0;points=[];" vertex="1" connectable="0" parent="qomqAFSf7AB_BySmps6i-49">
          <mxGeometry x="-0.3447" y="-3" relative="1" as="geometry">
            <mxPoint as="offset" />
          </mxGeometry>
        </mxCell>
        <mxCell id="qomqAFSf7AB_BySmps6i-51" style="edgeStyle=orthogonalEdgeStyle;rounded=0;orthogonalLoop=1;jettySize=auto;html=1;entryX=0.389;entryY=1.028;entryDx=0;entryDy=0;entryPerimeter=0;" edge="1" parent="1" source="qomqAFSf7AB_BySmps6i-48" target="qomqAFSf7AB_BySmps6i-50">
          <mxGeometry relative="1" as="geometry" />
        </mxCell>
        <mxCell id="qomqAFSf7AB_BySmps6i-57" value="1：n" style="edgeLabel;html=1;align=center;verticalAlign=middle;resizable=0;points=[];" vertex="1" connectable="0" parent="qomqAFSf7AB_BySmps6i-51">
          <mxGeometry x="-0.5501" relative="1" as="geometry">
            <mxPoint as="offset" />
          </mxGeometry>
        </mxCell>
        <mxCell id="qomqAFSf7AB_BySmps6i-48" value="&lt;div style=&quot;box-sizing: border-box ; width: 100% ; background: #e4e4e4 ; padding: 2px&quot;&gt;面试&lt;/div&gt;&lt;table style=&quot;width: 100% ; font-size: 1em&quot; cellpadding=&quot;2&quot; cellspacing=&quot;0&quot;&gt;&lt;tbody&gt;&lt;tr&gt;&lt;td&gt;PK&lt;/td&gt;&lt;td&gt;InterviewId&lt;/td&gt;&lt;/tr&gt;&lt;tr&gt;&lt;td&gt;&lt;br&gt;&lt;/td&gt;&lt;td&gt;ArrangementId&lt;br&gt;ScheduleId&lt;br&gt;ApplyId&lt;/td&gt;&lt;/tr&gt;&lt;/tbody&gt;&lt;/table&gt;" style="verticalAlign=top;align=left;overflow=fill;html=1;" vertex="1" parent="1">
          <mxGeometry x="1590" y="1540" width="180" height="100" as="geometry" />
        </mxCell>
        <mxCell id="qomqAFSf7AB_BySmps6i-50" value="&lt;div style=&quot;box-sizing: border-box ; width: 100% ; background: #e4e4e4 ; padding: 2px&quot;&gt;面试评价&lt;/div&gt;&lt;table style=&quot;width: 100% ; font-size: 1em&quot; cellpadding=&quot;2&quot; cellspacing=&quot;0&quot;&gt;&lt;tbody&gt;&lt;tr&gt;&lt;td&gt;PK&lt;/td&gt;&lt;td&gt;EvaluationId&lt;/td&gt;&lt;/tr&gt;&lt;tr&gt;&lt;td&gt;&lt;br&gt;&lt;/td&gt;&lt;td&gt;ScheduleId&lt;br&gt;InterviewId&lt;br&gt;ApplyId&lt;/td&gt;&lt;/tr&gt;&lt;/tbody&gt;&lt;/table&gt;" style="verticalAlign=top;align=left;overflow=fill;html=1;" vertex="1" parent="1">
          <mxGeometry x="1290" y="1390" width="180" height="100" as="geometry" />
        </mxCell>
      </root>
    </mxGraphModel>
  </diagram>
</mxfile>
